<?xml version="1.0" encoding="utf-8"?>
<!-- Generator: Adobe Illustrator 23.1.1, SVG Export Plug-In . SVG Version: 6.00 Build 0)  -->
<svg version="1.1" id="Layer_1" xmlns="http://www.w3.org/2000/svg" xmlns:xlink="http://www.w3.org/1999/xlink" x="0px" y="0px"
	 viewBox="0 0 425 665.7" style="enable-background:new 0 0 425 665.7;" xml:space="preserve">
<style type="text/css">
    @import url('https://fonts.googleapis.com/css?family=Roboto:300,400,700');
	.st0{clip-path:url(#SVGID_2_);}
	.st1{clip-path:url(#SVGID_4_);fill:url(#SVGID_5_);}
	.st2{fill:none;}
	.st3{font-family:'Roboto';font-weight:300;}
	.st4{font-size:14px;}
	.st5{font-size:13px;}
	.st6{fill:none;stroke:#000000;stroke-width:0.5;stroke-miterlimit:10;}
	.st7{fill:#B3B3B3;}
	.st8{fill:none;stroke:#CCCCCC;stroke-miterlimit:10;}
	.st9{fill:#E6E6E6;}
	.st10{filter:url(#Adobe_OpacityMaskFilter);}
	.st11{clip-path:url(#SVGID_11_);fill:url(#SVGID_13_);}
	.st12{clip-path:url(#SVGID_11_);mask:url(#SVGID_12_);fill:url(#SVGID_14_);}
	.st13{filter:url(#Adobe_OpacityMaskFilter_1_);}
	.st14{clip-path:url(#SVGID_16_);fill:url(#SVGID_18_);}
	.st15{clip-path:url(#SVGID_16_);mask:url(#SVGID_17_);fill:url(#SVGID_19_);}
	.st16{fill:#999999;}
	.st17{fill:none;stroke:#FFFFFF;stroke-miterlimit:10;}
	.st18{fill:none;stroke:#B3B3B3;stroke-miterlimit:10;}
	.st19{opacity:0.8;}
	.st20{clip-path:url(#SVGID_21_);fill:#8FAB72;}
	.st21{fill:#8FAB72;}
	.st22{fill:none;stroke:#000000;stroke-width:0.5;stroke-miterlimit:10;stroke-dasharray:1,1;}
	.st23{font-family:'Roboto';font-weight:600;}
	.st24{font-size:16px;}
	.st25{fill:none;stroke:#000000;stroke-width:0.5;stroke-miterlimit:10;stroke-dasharray:1.003,1.003;}
</style>
<g>
	<g>
		<g>
			<defs>
				<rect id="SVGID_1_" x="380" y="345.1" width="43" height="18.4"/>
			</defs>
			<clipPath id="SVGID_2_">
				<use xlink:href="#SVGID_1_"  style="overflow:visible;"/>
			</clipPath>
			<g class="st0">
				<g>
					<defs>
						<path id="SVGID_3_" d="M381.4,345.3c1.7,1.1,3.4,2.3,5,3.6c0.8,0.6,1.6,1.3,2.4,1.9c0.8,0.7,1.6,1.4,2.3,1.9
							c1.5,1.3,3.2,2.4,5,3.2c1.8,0.8,3.7,1.4,5.6,1.7c1,0.2,2,0.3,3,0.5c1,0.2,2.1,0.6,3,1.1c0.5,0.3,0.9,0.6,1.3,0.9
							c0.4,0.3,0.8,0.5,1.3,0.8c0.9,0.5,1.8,0.8,2.7,1.1c1.8,0.5,3.9,0.7,5.7,0.2c0.9-0.2,1.8-0.6,2.5-1.3c0.3-0.3,0.6-0.7,0.6-1
							c0.1-0.3,0-0.7-0.3-1l0,0c-0.2-0.2-0.2-0.5,0-0.7c0.2-0.2,0.5-0.2,0.7,0c0.2,0.2,0.4,0.5,0.5,0.8c0.1,0.3,0.1,0.7,0.1,1
							c-0.1,0.7-0.5,1.1-0.9,1.6c-0.8,0.8-1.8,1.2-2.9,1.5c-2.1,0.6-4.3,0.5-6.3-0.1c-1-0.3-2-0.7-3-1.2c-0.5-0.2-0.9-0.5-1.4-0.8
							c-0.5-0.3-0.8-0.6-1.3-0.8c-0.8-0.5-1.7-0.8-2.7-1c-0.9-0.2-1.9-0.3-3-0.5c-2-0.3-4.1-0.8-6-1.7c-1.9-0.9-3.7-2-5.3-3.3
							c-0.8-0.7-1.6-1.3-2.4-1.9c-0.8-0.6-1.6-1.2-2.4-1.8c-1.6-1.1-3.3-2.3-5-3.3l0,0c-0.4-0.3-0.6-0.8-0.3-1.3
							C380.4,345.1,381,344.9,381.4,345.3C381.4,345.2,381.4,345.2,381.4,345.3"/>
					</defs>
					<clipPath id="SVGID_4_">
						<use xlink:href="#SVGID_3_"  style="overflow:visible;"/>
					</clipPath>
					
						<linearGradient id="SVGID_5_" gradientUnits="userSpaceOnUse" x1="-230.0663" y1="465.2925" x2="-229.7182" y2="465.2925" gradientTransform="matrix(124.6758 0 0 124.6758 29063.6992 -57656.3945)">
						<stop  offset="0" style="stop-color:#8FAB72"/>
						<stop  offset="0.3644" style="stop-color:#8FAB72"/>
						<stop  offset="1" style="stop-color:#8FAB72"/>
					</linearGradient>
					<rect x="379.9" y="344.9" class="st1" width="43.1" height="18.8"/>
				</g>
			</g>
		</g>
	</g>
</g>
<g>
	<defs>
		<rect id="SVGID_6_" x="-18" y="216.5" width="428.5" height="178.2"/>
	</defs>
	<clipPath id="SVGID_7_">
		<use xlink:href="#SVGID_6_"  style="overflow:visible;"/>
	</clipPath>
	<g transform="matrix(1 0 0 1 0 0)" style="clip-path:url(#SVGID_7_);">
		
			<image style="overflow:visible;" width="2103" height="874" id="pangolin.psd" xlink:href="pangolin.png"  transform="matrix(0.2038 0 0 0.2038 -18.8103 216.5115)">
		</image>
	</g>
</g>
<rect x="46.1" y="359.8" class="st2" width="113.2" height="55"/>
<text transform="matrix(1 0 0 1 46.0763 371.8214)"><tspan x="0" y="0" class="st3 st4">A pangolin’s entire </tspan><tspan x="0" y="16.8" class="st3 st4">body is covered by </tspan><tspan x="0" y="33.6" class="st3 st4">scales</tspan></text>
<g>
	<rect x="160.9" y="167.8" class="st2" width="103.5" height="32.6"/>
	<text transform="matrix(1 0 0 1 162.3422 179.7979)"><tspan x="0" y="0" class="st3 st4">Scales are made </tspan><tspan x="21.9" y="16.8" class="st3 st4">of keratin</tspan></text>
</g>
<g>
	<rect x="237.6" y="14.3" class="st2" width="186" height="66.2"/>
	<text transform="matrix(1 0 0 1 237.5699 26.2709)"><tspan x="0" y="0" class="st3 st4">Keratin is the same substance </tspan><tspan x="0" y="16.8" class="st3 st4">that forms hair, nails, feathers,  </tspan><tspan x="0" y="33.6" class="st3 st4">horns, and the outer layer of</tspan><tspan x="0" y="50.4" class="st3 st4">skin among vertebrates</tspan></text>
</g>
<text transform="matrix(1 0 0 1 319.4924 414.8483)" class="st3 st4">Long nails </text>
<g>
	<rect x="22.3" y="486.8" class="st2" width="380.5" height="32.6"/>
	<text transform="matrix(1 0 0 1 22.2652 498.811)"><tspan x="0" y="0" class="st3 st4">Pangolin scales are used in TCM as a remedy for a diverse </tspan><tspan x="0" y="16.8" class="st3 st4">range of diseases </tspan></text>
</g>
<text transform="matrix(1 0 0 1 31.8057 633.8032)"><tspan x="0" y="0" class="st3 st4">Scale are</tspan><tspan x="0" y="16.8" class="st3 st4">dried </tspan></text>
<text transform="matrix(1 0 0 1 180.7012 633.8032)"><tspan x="0" y="0" class="st3 st4">G</tspan><tspan x="9.6" y="0" class="st3 st4">r</tspan><tspan x="14.2" y="0" class="st3 st4">ound into</tspan><tspan x="0" y="16.8" class="st3 st4">powder</tspan></text>
<text transform="matrix(1 0 0 1 307.4785 631.9926)"><tspan x="0" y="0" class="st3 st4">Powder used in  </tspan><tspan x="0" y="16.8" class="st3 st4">medicine </tspan></text>
<rect x="2.1" y="85.2" class="st2" width="137.1" height="47.6"/>
<text transform="matrix(1 0 0 1 2.0685 97.128)"><tspan x="0" y="0" class="st3 st4">Sizes vary from 30cm </tspan><tspan x="0" y="16.8" class="st3 st4">to 1m depending on</tspan><tspan x="0" y="33.6" class="st3 st4">species </tspan></text>
<text transform="matrix(1 0 0 1 395.5457 297.5242)" class="st3 st4">Ear</text>
<g>
	<defs>
		<rect id="SVGID_8_" x="309.8" y="81.7" width="105.3" height="130.9"/>
	</defs>
	<clipPath id="SVGID_9_">
		<use xlink:href="#SVGID_8_"  style="overflow:visible;"/>
	</clipPath>
	<g transform="matrix(1 0 0 1 0 7.629395e-06)" style="clip-path:url(#SVGID_9_);">
		
			<image style="overflow:visible;" width="770" height="966" id="scale.psd" xlink:href="scale.png"  transform="matrix(0.1356 0 0 0.1356 305.0285 81.6959)">
		</image>
	</g>
</g>
<text transform="matrix(1 0 0 1 41.8931 292.1977)" class="st3 st5">1m</text>
<line class="st6" x1="4.4" y1="275.7" x2="97.9" y2="275.7"/>
<path class="st7" d="M187.5,598c0.4,0.8,0,1.7-0.7,2c-0.8,0.4-1.7,0-2-0.7c-0.4-0.8,0-1.7,0.7-2C186.3,596.9,187.2,597.2,187.5,598"
	/>
<path class="st7" d="M192.7,597.2c0.2,0.5,0,1.1-0.5,1.3c-0.5,0.2-1.1,0-1.3-0.5c-0.2-0.5,0-1.1,0.5-1.3
	C191.9,596.5,192.5,596.7,192.7,597.2"/>
<path class="st7" d="M195.3,602.6c0.2,0.5,0,1.1-0.5,1.3c-0.5,0.2-1.1,0-1.3-0.5c-0.2-0.5,0-1.1,0.5-1.3
	C194.5,601.9,195.1,602.1,195.3,602.6"/>
<path class="st7" d="M206.9,598.8c0.4,0.8,0,1.7-0.7,2c-0.8,0.4-1.7,0-2-0.7c-0.4-0.8,0-1.7,0.7-2
	C205.6,597.7,206.5,598,206.9,598.8"/>
<path class="st7" d="M212,600.1c-0.4-1,0.1-2.2,1.1-2.6c1-0.4,2.2,0.1,2.6,1.1c0.4,1-0.1,2.2-1.1,2.6
	C213.6,601.6,212.4,601.1,212,600.1"/>
<path class="st7" d="M238.9,601.5c-0.2-0.5,0-1.1,0.6-1.3c0.5-0.2,1.1,0,1.3,0.6c0.2,0.5,0,1.1-0.6,1.3
	C239.7,602.3,239.1,602,238.9,601.5"/>
<path class="st7" d="M232.5,601.9c-0.2-0.5,0-1.1,0.6-1.3c0.5-0.2,1.1,0,1.3,0.6c0.2,0.5,0,1.1-0.6,1.3
	C233.3,602.7,232.8,602.4,232.5,601.9"/>
<path class="st7" d="M233.5,604.2c-0.3-0.8,0.1-1.7,0.8-2c0.8-0.3,1.7,0.1,2,0.8c0.3,0.8-0.1,1.7-0.8,2
	C234.7,605.4,233.8,605,233.5,604.2"/>
<path class="st8" d="M44.1,599.4c8.3,3.8,18.6,2.6,25.9-2.8"/>
<path class="st7" d="M202,594.4c0.7,1.5,0.1,3.3-1.4,4s-3.3,0.1-4-1.4c-0.7-1.5-0.1-3.3,1.4-4C199.5,592.3,201.3,592.9,202,594.4"/>
<path class="st7" d="M199,585.8c0.5,1,0.1,2.2-0.9,2.7c-1,0.5-2.2,0.1-2.7-0.9c-0.5-1-0.1-2.2,0.9-2.7
	C197.3,584.4,198.5,584.8,199,585.8"/>
<path class="st7" d="M192.9,590.4c0.5,1,0.1,2.2-0.9,2.7c-1,0.5-2.2,0.1-2.7-0.9c-0.5-1-0.1-2.2,0.9-2.7
	C191.2,589,192.4,589.4,192.9,590.4"/>
<path class="st7" d="M191.3,575.5c1,2,0.1,4.4-1.9,5.4c-2,1-4.4,0.1-5.4-1.9c-1-2-0.1-4.4,1.9-5.4
	C188,572.7,190.4,573.5,191.3,575.5"/>
<path class="st7" d="M199,573c0.2,0.5,0,1.1-0.5,1.3c-0.5,0.2-1.1,0-1.3-0.5c-0.2-0.5,0-1.1,0.5-1.3
	C198.2,572.3,198.8,572.5,199,573"/>
<path class="st7" d="M194.6,566.2c0.2,0.5,0,1.1-0.5,1.3c-0.5,0.2-1.1,0-1.3-0.5c-0.2-0.5,0-1.1,0.5-1.3
	C193.8,565.4,194.4,565.7,194.6,566.2"/>
<path class="st7" d="M201.9,562.7c0.5,1,0.1,2.2-0.9,2.7c-1,0.5-2.2,0.1-2.7-0.9c-0.5-1-0.1-2.2,0.9-2.7
	C200.2,561.3,201.4,561.7,201.9,562.7"/>
<path class="st7" d="M205.7,575.4c0.2,0.5,0,1.1-0.5,1.3c-0.5,0.2-1.1,0-1.3-0.5c-0.2-0.5,0-1.1,0.5-1.3
	C204.9,574.6,205.5,574.9,205.7,575.4"/>
<path class="st7" d="M209.8,584c0.6,1.3,0.1,2.8-1.2,3.4c-1.3,0.6-2.8,0.1-3.4-1.2c-0.6-1.3-0.1-2.8,1.2-3.4
	C207.7,582.2,209.2,582.7,209.8,584"/>
<path class="st7" d="M200.3,578c0.2,0.5,0,1.1-0.5,1.3c-0.5,0.2-1.1,0-1.3-0.5c-0.2-0.5,0-1.1,0.5-1.3
	C199.4,577.2,200,577.5,200.3,578"/>
<path class="st7" d="M193.6,585c0.4,0.8,0,1.7-0.7,2c-0.8,0.4-1.7,0-2-0.7c-0.4-0.8,0-1.7,0.7-2C192.4,584,193.3,584.3,193.6,585"/>
<path class="st7" d="M196.4,579.2c0.4,0.8,0,1.7-0.7,2c-0.8,0.4-1.7,0-2-0.7c-0.4-0.8,0-1.7,0.7-2
	C195.2,578.2,196.1,578.5,196.4,579.2"/>
<path class="st7" d="M189.2,568.8c0.2,0.5,0,1.1-0.5,1.3c-0.5,0.2-1.1,0-1.3-0.5c-0.2-0.5,0-1.1,0.5-1.3
	C188.3,568,188.9,568.3,189.2,568.8"/>
<path class="st7" d="M182,565.5c0.2,0.5,0,1.1-0.5,1.3c-0.5,0.2-1.1,0-1.3-0.5c-0.2-0.5,0-1.1,0.5-1.3
	C181.2,564.8,181.8,565,182,565.5"/>
<path class="st7" d="M182.6,573.6c0.4,0.8,0,1.7-0.7,2c-0.8,0.4-1.7,0-2-0.7c-0.4-0.8,0-1.7,0.7-2
	C181.3,572.5,182.2,572.8,182.6,573.6"/>
<path class="st7" d="M183.3,582.2c0.4,0.8,0,1.7-0.7,2c-0.8,0.4-1.7,0-2-0.7c-0.4-0.8,0-1.7,0.7-2
	C182.1,581.1,183,581.4,183.3,582.2"/>
<path class="st7" d="M188,587.2c0.5,1,0.1,2.2-0.9,2.7c-1,0.5-2.2,0.1-2.7-0.9c-0.5-1-0.1-2.2,0.9-2.7
	C186.3,585.8,187.5,586.2,188,587.2"/>
<path class="st7" d="M177.4,574.4c0.2,0.5,0,1.1-0.5,1.3c-0.5,0.2-1.1,0-1.3-0.5c-0.2-0.5,0-1.1,0.5-1.3
	C176.5,573.7,177.1,573.9,177.4,574.4"/>
<path class="st7" d="M178,566.3c0.2,0.5,0,1.1-0.5,1.3c-0.5,0.2-1.1,0-1.3-0.5c-0.2-0.5,0-1.1,0.5-1.3
	C177.1,565.6,177.7,565.8,178,566.3"/>
<path class="st7" d="M180.1,559.2c0.4,0.8,0,1.7-0.7,2c-0.8,0.4-1.7,0-2-0.7c-0.4-0.8,0-1.7,0.7-2
	C178.9,558.1,179.8,558.4,180.1,559.2"/>
<path class="st7" d="M187.6,553.9c0.2,0.5,0,1.1-0.5,1.3c-0.5,0.2-1.1,0-1.3-0.5c-0.2-0.5,0-1.1,0.5-1.3
	C186.8,553.2,187.4,553.4,187.6,553.9"/>
<path class="st7" d="M188.6,562.9c0.4,0.8,0,1.7-0.7,2c-0.8,0.4-1.7,0-2-0.7c-0.4-0.8,0-1.7,0.7-2
	C187.3,561.8,188.2,562.1,188.6,562.9"/>
<path class="st7" d="M186,569.2c0.2,0.5,0,1.1-0.5,1.3c-0.5,0.2-1.1,0-1.3-0.5c-0.2-0.5,0-1.1,0.5-1.3
	C185.2,568.4,185.8,568.7,186,569.2"/>
<path class="st7" d="M192.3,558.9c0.1,0.3,0,0.6-0.2,0.7c-0.3,0.1-0.6,0-0.7-0.2c-0.1-0.3,0-0.6,0.2-0.7
	C191.9,558.6,192.2,558.7,192.3,558.9"/>
<path class="st7" d="M186.2,557.9c0.2,0.5,0,1.1-0.5,1.3c-0.5,0.2-1.1,0-1.3-0.5c-0.2-0.5,0-1.1,0.5-1.3
	C185.4,557.2,186,557.4,186.2,557.9"/>
<path class="st7" d="M196,562.1c0.2,0.5,0,1.1-0.5,1.3c-0.5,0.2-1.1,0-1.3-0.5c-0.2-0.5,0-1.1,0.5-1.3
	C195.2,561.4,195.8,561.6,196,562.1"/>
<path class="st7" d="M194.5,570.7c0.2,0.5,0,1.1-0.5,1.3c-0.5,0.2-1.1,0-1.3-0.5c-0.2-0.5,0-1.1,0.5-1.3
	C193.7,569.9,194.3,570.2,194.5,570.7"/>
<path class="st7" d="M203.4,568.1c0.4,0.8,0,1.7-0.7,2c-0.8,0.4-1.7,0-2-0.7c-0.4-0.8,0-1.7,0.7-2C202.1,567,203,567.4,203.4,568.1"
	/>
<path class="st7" d="M199.6,576.6c0.1,0.3,0,0.6-0.2,0.7c-0.3,0.1-0.6,0-0.7-0.2c-0.1-0.3,0-0.6,0.2-0.7
	C199.2,576.2,199.5,576.3,199.6,576.6"/>
<path class="st7" d="M204,585.7c0.1,0.3,0,0.6-0.2,0.7c-0.3,0.1-0.6,0-0.7-0.2c-0.1-0.3,0-0.6,0.2-0.7
	C203.5,585.3,203.8,585.4,204,585.7"/>
<path class="st7" d="M200.3,578c0.2,0.5,0,1.1-0.5,1.3c-0.5,0.2-1.1,0-1.3-0.5c-0.2-0.5,0-1.1,0.5-1.3
	C199.4,577.2,200,577.5,200.3,578"/>
<path class="st7" d="M185.4,581.7c0.2,0.5,0,1.1-0.5,1.3c-0.5,0.2-1.1,0-1.3-0.5c-0.2-0.5,0-1.1,0.5-1.3
	C184.5,581,185.1,581.2,185.4,581.7"/>
<path class="st7" d="M178.4,578.9c0.1,0.3,0,0.6-0.2,0.7c-0.3,0.1-0.6,0-0.7-0.2c-0.1-0.3,0-0.6,0.2-0.7
	C178,578.6,178.3,578.7,178.4,578.9"/>
<path class="st7" d="M175,583.4c-0.2-0.5,0-1.1,0.5-1.3c0.5-0.2,1.1,0,1.3,0.5c0.2,0.5,0,1.1-0.5,1.3
	C175.8,584.1,175.2,583.9,175,583.4"/>
<path class="st7" d="M186.3,590.8c-0.1-0.3,0-0.6,0.2-0.7c0.3-0.1,0.6,0,0.7,0.2s0,0.6-0.2,0.7C186.7,591.1,186.4,591,186.3,590.8"
	/>
<path class="st7" d="M182.6,587.5c0.2,0.5,0,1.1-0.5,1.3c-0.5,0.2-1.1,0-1.3-0.5c-0.2-0.5,0-1.1,0.5-1.3
	C181.7,586.8,182.3,587,182.6,587.5"/>
<path class="st7" d="M183.8,592.5c0.2,0.5,0,1.1-0.5,1.3c-0.5,0.2-1.1,0-1.3-0.5c-0.2-0.5,0-1.1,0.5-1.3
	C183,591.8,183.6,592,183.8,592.5"/>
<path class="st7" d="M201.6,590.1c0.4,0.8,0,1.7-0.7,2c-0.8,0.4-1.7,0-2-0.7c-0.4-0.8,0-1.7,0.7-2
	C200.4,589.1,201.3,589.4,201.6,590.1"/>
<path class="st7" d="M208.6,590.7c0.2,0.5,0,1.1-0.5,1.3c-0.5,0.2-1.1,0-1.3-0.5c-0.2-0.5,0-1.1,0.5-1.3
	C207.8,590,208.4,590.2,208.6,590.7"/>
<path class="st7" d="M214.4,593.5c0.2,0.5,0,1.1-0.5,1.3c-0.5,0.2-1.1,0-1.3-0.5c-0.2-0.5,0-1.1,0.5-1.3
	C213.6,592.8,214.2,593,214.4,593.5"/>
<path class="st7" d="M216.3,585.9c0.2,0.5,0,1.1-0.5,1.3c-0.5,0.2-1.1,0-1.3-0.5c-0.2-0.5,0-1.1,0.5-1.3
	C215.5,585.2,216.1,585.4,216.3,585.9"/>
<path class="st7" d="M203.8,580.7c0.2,0.5,0,1.1-0.5,1.3c-0.5,0.2-1.1,0-1.3-0.5c-0.2-0.5,0-1.1,0.5-1.3
	C203,580,203.6,580.2,203.8,580.7"/>
<path class="st7" d="M213.8,575.9c0.2,0.5,0,1.1-0.5,1.3c-0.5,0.2-1.1,0-1.3-0.5c-0.2-0.5,0-1.1,0.5-1.3
	C213,575.2,213.6,575.4,213.8,575.9"/>
<path class="st7" d="M209.3,575.9c0.2,0.5,0,1.1-0.5,1.3c-0.5,0.2-1.1,0-1.3-0.5c-0.2-0.5,0-1.1,0.5-1.3
	C208.5,575.2,209.1,575.4,209.3,575.9"/>
<path class="st7" d="M208.8,567.8c0.1,0.3,0,0.6-0.2,0.7c-0.3,0.1-0.6,0-0.7-0.2c-0.1-0.3,0-0.6,0.2-0.7
	C208.4,567.4,208.7,567.5,208.8,567.8"/>
<path class="st7" d="M208.2,561.9c0.5,1,0.1,2.2-0.9,2.7c-1,0.5-2.2,0.1-2.7-0.9c-0.5-1-0.1-2.2,0.9-2.7
	C206.5,560.5,207.7,560.9,208.2,561.9"/>
<path class="st7" d="M202.4,556.8c0.2,0.5,0,1.1-0.5,1.3c-0.5,0.2-1.1,0-1.3-0.5c-0.2-0.5,0-1.1,0.5-1.3
	C201.6,556.1,202.2,556.3,202.4,556.8"/>
<path class="st7" d="M194,553.1c0.2,0.5,0,1.1-0.5,1.3c-0.5,0.2-1.1,0-1.3-0.5c-0.2-0.5,0-1.1,0.5-1.3
	C193.1,552.4,193.7,552.6,194,553.1"/>
<path class="st7" d="M197,557.2c0.2,0.5,0,1.1-0.5,1.3c-0.5,0.2-1.1,0-1.3-0.5c-0.2-0.5,0-1.1,0.5-1.3
	C196.2,556.5,196.8,556.7,197,557.2"/>
<path class="st7" d="M192.9,550.8c0.4,0.8,0,1.7-0.7,2c-0.8,0.4-1.7,0-2-0.7c-0.4-0.8,0-1.7,0.7-2
	C191.6,549.8,192.5,550.1,192.9,550.8"/>
<path class="st7" d="M207.7,558.6c-0.6-1.5,0.1-3.3,1.7-3.9c1.5-0.6,3.3,0.1,3.9,1.7c0.6,1.5-0.1,3.3-1.7,3.9
	C210.1,560.9,208.4,560.1,207.7,558.6"/>
<path class="st7" d="M223.5,558.9c-0.4-1,0.1-2.2,1.1-2.6c1-0.4,2.2,0.1,2.6,1.1c0.4,1-0.1,2.2-1.1,2.6
	C225.1,560.4,223.9,559.9,223.5,558.9"/>
<path class="st7" d="M235.9,564.7c-0.4-1,0.1-2.2,1.1-2.6c1-0.4,2.2,0.1,2.6,1.1c0.4,1-0.1,2.2-1.1,2.6
	C237.5,566.2,236.4,565.7,235.9,564.7"/>
<path class="st7" d="M210.2,573.1c-0.4-1,0.1-2.2,1.1-2.6c1-0.4,2.2,0.1,2.6,1.1c0.4,1-0.1,2.2-1.1,2.6
	C211.8,574.6,210.6,574.1,210.2,573.1"/>
<path class="st7" d="M216.5,553.6c-0.6-1.4,0.1-3.1,1.6-3.7c1.4-0.6,3.1,0.1,3.7,1.6c0.6,1.4-0.1,3.1-1.6,3.7
	C218.8,555.8,217.1,555.1,216.5,553.6"/>
<path class="st7" d="M228.7,581.7c-0.2-0.5,0-1.1,0.6-1.3c0.5-0.2,1.1,0,1.3,0.6c0.2,0.5,0,1.1-0.6,1.3
	C229.5,582.5,228.9,582.3,228.7,581.7"/>
<path class="st7" d="M232.7,588.8c-0.2-0.5,0-1.1,0.6-1.3c0.5-0.2,1.1,0,1.3,0.6c0.2,0.5,0,1.1-0.6,1.3
	C233.5,589.6,232.9,589.3,232.7,588.8"/>
<path class="st7" d="M225.2,591.8c-0.4-1,0.1-2.2,1.1-2.6c1-0.4,2.2,0.1,2.6,1.1c0.4,1-0.1,2.2-1.1,2.6
	C226.8,593.4,225.6,592.9,225.2,591.8"/>
<path class="st7" d="M222.2,579c-0.2-0.5,0-1.1,0.6-1.3c0.5-0.2,1.1,0,1.3,0.6c0.2,0.5,0,1.1-0.6,1.3
	C223,579.7,222.4,579.5,222.2,579"/>
<path class="st7" d="M218.6,570.1c-0.5-1.3,0.1-2.8,1.4-3.3c1.3-0.5,2.8,0.1,3.3,1.4c0.5,1.3-0.1,2.8-1.4,3.3
	C220.6,572,219.1,571.4,218.6,570.1"/>
<path class="st7" d="M227.8,576.7c-0.2-0.5,0-1.1,0.6-1.3c0.5-0.2,1.1,0,1.3,0.6c0.2,0.5,0,1.1-0.6,1.3
	C228.6,577.5,228,577.2,227.8,576.7"/>
<path class="st7" d="M234.8,570c-0.3-0.8,0.1-1.7,0.8-2c0.8-0.3,1.7,0.1,2,0.8c0.3,0.8-0.1,1.7-0.8,2
	C236,571.2,235.2,570.8,234.8,570"/>
<path class="st7" d="M231.7,575.7c-0.3-0.8,0.1-1.7,0.8-2c0.8-0.3,1.7,0.1,2,0.8c0.3,0.8-0.1,1.7-0.8,2
	C232.9,576.8,232,576.4,231.7,575.7"/>
<path class="st7" d="M238.3,586.6c-0.2-0.5,0-1.1,0.6-1.3c0.5-0.2,1.1,0,1.3,0.6c0.2,0.5,0,1.1-0.6,1.3
	C239.1,587.3,238.5,587.1,238.3,586.6"/>
<path class="st7" d="M245.2,590.3c-0.2-0.5,0-1.1,0.6-1.3c0.5-0.2,1.1,0,1.3,0.6c0.2,0.5,0,1.1-0.6,1.3
	C246,591,245.4,590.8,245.2,590.3"/>
<path class="st7" d="M245.2,582.1c-0.3-0.8,0.1-1.7,0.8-2c0.8-0.3,1.7,0.1,2,0.8c0.3,0.8-0.1,1.7-0.8,2
	C246.4,583.3,245.5,582.9,245.2,582.1"/>
<path class="st7" d="M244.9,573.5c-0.3-0.8,0.1-1.7,0.8-2c0.8-0.3,1.7,0.1,2,0.8c0.3,0.8-0.1,1.7-0.8,2
	C246.1,574.7,245.3,574.3,244.9,573.5"/>
<path class="st7" d="M240.6,568.2c-0.4-1,0.1-2.2,1.1-2.6c1-0.4,2.2,0.1,2.6,1.1c0.4,1-0.1,2.2-1.1,2.6
	C242.2,569.8,241,569.3,240.6,568.2"/>
<path class="st7" d="M250.4,581.7c-0.2-0.5,0-1.1,0.6-1.3c0.5-0.2,1.1,0,1.3,0.6c0.2,0.5,0,1.1-0.6,1.3
	C251.2,582.4,250.6,582.2,250.4,581.7"/>
<path class="st7" d="M249.3,589.7c-0.2-0.5,0-1.1,0.6-1.3c0.5-0.2,1.1,0,1.3,0.6c0.2,0.5,0,1.1-0.6,1.3
	C250.1,590.5,249.5,590.2,249.3,589.7"/>
<path class="st7" d="M246.7,596.7c-0.3-0.8,0.1-1.7,0.8-2c0.8-0.3,1.7,0.1,2,0.8c0.3,0.8-0.1,1.7-0.8,2
	C247.9,597.9,247,597.5,246.7,596.7"/>
<path class="st7" d="M208.2,596.9c-0.3-0.8,0.1-1.7,0.8-2c0.8-0.3,1.7,0.1,2,0.8c0.3,0.8-0.1,1.7-0.8,2
	C209.4,598.1,208.5,597.7,208.2,596.9"/>
<path class="st7" d="M238.5,592.4c-0.3-0.8,0.1-1.7,0.8-2c0.8-0.3,1.7,0.1,2,0.8c0.3,0.8-0.1,1.7-0.8,2
	C239.7,593.6,238.8,593.2,238.5,592.4"/>
<path class="st7" d="M241.5,586.4c-0.2-0.5,0-1.1,0.6-1.3c0.5-0.2,1.1,0,1.3,0.6c0.2,0.5,0,1.1-0.6,1.3
	C242.2,587.1,241.7,586.9,241.5,586.4"/>
<path class="st7" d="M234.6,596.2c-0.1-0.3,0-0.6,0.3-0.7c0.3-0.1,0.6,0,0.7,0.3c0.1,0.3,0,0.6-0.3,0.7
	C235,596.6,234.7,596.5,234.6,596.2"/>
<path class="st7" d="M240.6,597.6c-0.2-0.5,0-1.1,0.6-1.3c0.5-0.2,1.1,0,1.3,0.6c0.2,0.5,0,1.1-0.6,1.3
	C241.4,598.3,240.8,598.1,240.6,597.6"/>
<path class="st7" d="M231,592.8c-0.2-0.5,0-1.1,0.6-1.3c0.5-0.2,1.1,0,1.3,0.6c0.2,0.5,0,1.1-0.6,1.3
	C231.8,593.5,231.2,593.3,231,592.8"/>
<path class="st7" d="M233,584.3c-0.2-0.5,0-1.1,0.6-1.3c0.5-0.2,1.1,0,1.3,0.6c0.2,0.5,0,1.1-0.6,1.3
	C233.8,585.1,233.2,584.9,233,584.3"/>
<path class="st7" d="M224.1,586.3c-0.3-0.8,0.1-1.7,0.8-2c0.8-0.3,1.7,0.1,2,0.8c0.3,0.8-0.1,1.7-0.8,2
	C225.3,587.5,224.4,587.1,224.1,586.3"/>
<path class="st7" d="M228.3,578.1c-0.1-0.3,0-0.6,0.3-0.7c0.3-0.1,0.6,0,0.7,0.3c0.1,0.3,0,0.6-0.3,0.7
	C228.7,578.5,228.4,578.4,228.3,578.1"/>
<path class="st7" d="M224.6,568.8c-0.1-0.3,0-0.6,0.3-0.7c0.3-0.1,0.6,0,0.7,0.3c0.1,0.3,0,0.6-0.3,0.7
	C225,569.2,224.7,569,224.6,568.8"/>
<path class="st7" d="M227.8,576.7c-0.2-0.5,0-1.1,0.6-1.3c0.5-0.2,1.1,0,1.3,0.6c0.2,0.5,0,1.1-0.6,1.3
	C228.6,577.5,228,577.2,227.8,576.7"/>
<path class="st7" d="M242.9,573.8c-0.2-0.5,0-1.1,0.6-1.3c0.5-0.2,1.1,0,1.3,0.6c0.2,0.5,0,1.1-0.6,1.3
	C243.7,574.6,243.1,574.4,242.9,573.8"/>
<path class="st7" d="M249.6,577.1c-0.1-0.3,0-0.6,0.3-0.7c0.3-0.1,0.6,0,0.7,0.3c0.1,0.3,0,0.6-0.3,0.7
	C250,577.5,249.7,577.3,249.6,577.1"/>
<path class="st7" d="M253.4,572.9c0.2,0.5,0,1.1-0.6,1.3c-0.5,0.2-1.1,0-1.3-0.6c-0.2-0.5,0-1.1,0.6-1.3
	C252.6,572.1,253.1,572.3,253.4,572.9"/>
<path class="st7" d="M242.5,564.8c0.1,0.3,0,0.6-0.3,0.7c-0.3,0.1-0.6,0-0.7-0.3c-0.1-0.3,0-0.6,0.3-0.7
	C242.1,564.4,242.4,564.5,242.5,564.8"/>
<path class="st7" d="M214.2,590.8c0.1,0.3,0,0.6-0.3,0.7c-0.3,0.1-0.6,0-0.7-0.3c-0.1-0.3,0-0.6,0.3-0.7
	C213.8,590.4,214.1,590.6,214.2,590.8"/>
<path class="st7" d="M246,568.2c-0.2-0.5,0-1.1,0.6-1.3c0.5-0.2,1.1,0,1.3,0.6c0.2,0.5,0,1.1-0.6,1.3
	C246.8,569,246.3,568.7,246,568.2"/>
<path class="st7" d="M241.7,557.5c-0.3-0.8,0.1-1.7,0.8-2c0.8-0.3,1.7,0.1,2,0.8c0.3,0.8-0.1,1.7-0.8,2
	C242.9,558.6,242,558.3,241.7,557.5"/>
<path class="st7" d="M236.5,558c-0.2-0.5,0-1.1,0.6-1.3c0.5-0.2,1.1,0,1.3,0.6c0.2,0.5,0,1.1-0.6,1.3
	C237.3,558.7,236.7,558.5,236.5,558"/>
<path class="st7" d="M245.1,563.2c-0.2-0.5,0-1.1,0.6-1.3c0.5-0.2,1.1,0,1.3,0.6c0.2,0.5,0,1.1-0.6,1.3
	C245.9,563.9,245.3,563.7,245.1,563.2"/>
<path class="st7" d="M234.2,552.4c-0.2-0.5,0-1.1,0.6-1.3c0.5-0.2,1.1,0,1.3,0.6c0.2,0.5,0,1.1-0.6,1.3
	C235,553.1,234.4,552.9,234.2,552.4"/>
<path class="st7" d="M208.6,551c-0.3-0.8,0.1-1.7,0.8-2c0.8-0.3,1.7,0.1,2,0.8c0.3,0.8-0.1,1.7-0.8,2
	C209.8,552.2,208.9,551.8,208.6,551"/>
<path class="st7" d="M227.2,564.5c-0.3-0.8,0.1-1.7,0.8-2c0.8-0.3,1.7,0.1,2,0.8c0.3,0.8-0.1,1.7-0.8,2
	C228.4,565.6,227.5,565.2,227.2,564.5"/>
<path class="st7" d="M220.2,563.5c-0.2-0.5,0-1.1,0.6-1.3c0.5-0.2,1.1,0,1.3,0.6c0.2,0.5,0,1.1-0.6,1.3
	C221,564.2,220.5,564,220.2,563.5"/>
<path class="st7" d="M214.6,560.3c-0.2-0.5,0-1.1,0.6-1.3c0.5-0.2,1.1,0,1.3,0.6c0.2,0.5,0,1.1-0.6,1.3
	C215.4,561.1,214.8,560.8,214.6,560.3"/>
<path class="st7" d="M212.2,567.8c-0.2-0.5,0-1.1,0.6-1.3c0.5-0.2,1.1,0,1.3,0.6c0.2,0.5,0,1.1-0.6,1.3
	C213,568.6,212.4,568.3,212.2,567.8"/>
<path class="st7" d="M224.4,573.7c-0.2-0.5,0-1.1,0.6-1.3c0.5-0.2,1.1,0,1.3,0.6c0.2,0.5,0,1.1-0.6,1.3
	C225.2,574.5,224.6,574.2,224.4,573.7"/>
<path class="st7" d="M214.1,577.9c-0.2-0.5,0-1.1,0.6-1.3c0.5-0.2,1.1,0,1.3,0.6c0.2,0.5,0,1.1-0.6,1.3
	C214.9,578.6,214.3,578.4,214.1,577.9"/>
<path class="st7" d="M218.6,578.2c-0.2-0.5,0-1.1,0.6-1.3c0.5-0.2,1.1,0,1.3,0.6c0.2,0.5,0,1.1-0.6,1.3
	C219.4,579,218.8,578.8,218.6,578.2"/>
<path class="st7" d="M218.7,586.4c-0.1-0.3,0-0.6,0.3-0.7c0.3-0.1,0.6,0,0.7,0.3c0.1,0.3,0,0.6-0.3,0.7
	C219.1,586.7,218.8,586.6,218.7,586.4"/>
<path class="st7" d="M218.9,592.3c-0.4-1,0.1-2.2,1.1-2.6c1-0.4,2.2,0.1,2.6,1.1c0.4,1-0.1,2.2-1.1,2.6
	C220.5,593.8,219.3,593.3,218.9,592.3"/>
<path class="st7" d="M211.8,583.4c-0.4-1,0.1-2.2,1.1-2.6c1-0.4,2.2,0.1,2.6,1.1c0.4,1-0.1,2.2-1.1,2.6
	C213.4,585,212.2,584.5,211.8,583.4"/>
<path class="st7" d="M224.3,597.6c-0.2-0.5,0-1.1,0.6-1.3c0.5-0.2,1.1,0,1.3,0.6c0.2,0.5,0,1.1-0.6,1.3
	C225.1,598.4,224.5,598.2,224.3,597.6"/>
<path class="st7" d="M229.7,597.6c-0.2-0.5,0-1.1,0.6-1.3c0.5-0.2,1.1,0,1.3,0.6c0.2,0.5,0,1.1-0.6,1.3
	C230.5,598.4,229.9,598.1,229.7,597.6"/>
<path class="st9" d="M27.9,570.4c0,0,4.3-9.4,10-13.2c5.7-3.8,17-6.8,23.1-6.9c6.1-0.1,14.7-0.3,18.9,1.1c4.2,1.4,6.9,3.2,12.1,5.1
	c5.2,1.9,14.1,2.2,10.6,6.3c-3.6,4.1-3.2,4.6-6.9,10.1c-3.7,5.6-3.7,5.6-7.6,10c-3.9,4.4-3.6,4.9-7.9,8.9c-4.3,4-5.3,4.2-9.5,7.5
	c-4.2,3.3-5.7,4.5-10.8,5.9c-5.1,1.4-4.4,0.8-9.6-0.4c-5.3-1.2-7.5-4.1-12.7-6.7c-5.2-2.6-7.5-4.8-7.6-8s1.1-4.9,0.2-6.8
	c-0.9-1.9-2.4-1.5-2.5-4C27.4,576.8,27.9,570.4,27.9,570.4"/>
<path class="st8" d="M32.4,592.8c8.6,5,19.3,5.5,29,3.7c9.7-1.8,19.2-7.7,25.3-15.5"/>
<path class="st8" d="M32.9,590.1c13.9,4.2,29.3,3.1,42.4-3.2"/>
<path class="st8" d="M74.4,589.9c-13.1,5.7-28.4,6.3-41.9,1.6"/>
<path class="st8" d="M68.7,552.5c-15.1-1.2-30.7,6-39.6,18.3"/>
<path class="st8" d="M30.1,572.7c11.1-8.4,25.2-12.7,39.1-11.8"/>
<path class="st8" d="M30.2,571c11.5-10.4,27.3-15.9,42.7-14.7"/>
<path class="st8" d="M30.6,576c13.8-4.9,28.7-6.7,43.2-5.3"/>
<path class="st8" d="M30.3,574.4c11.9-6.5,25.9-9.3,39.4-7.9"/>
<path class="st8" d="M32.8,583.8c15.2,1.4,30.8-0.9,44.9-6.6"/>
<path class="st8" d="M32.6,586.1c16,1.8,32.4-0.8,47-7.4"/>
<path class="st8" d="M32.8,587.8c14.8,2.5,30.2,0.8,44.1-4.8"/>
<path class="st8" d="M33.2,581.7c14-8.2,32.7-1.7,47.6-8.3"/>
<path class="st8" d="M72.9,573.8c-14.1-1-28.5,0.6-42,4.8"/>
<path class="st8" d="M36.1,582.1c8.1-1.6,16.3-2.5,24.6-2.7"/>
<path class="st9" d="M98.3,565.5c0,0-4,12.7-15.8,22.6c-11.8,10-10.9,8.9-10.9,8.9l-16.1-18.4l18.3-26L98.3,565.5z"/>
<g>
	<defs>
		<polygon id="SVGID_10_" points="142.1,575.6 123.3,575.6 123.3,580.5 142.1,580.5 142.1,584.6 150.2,578.1 142.1,571.5 		"/>
	</defs>
	<clipPath id="SVGID_11_">
		<use xlink:href="#SVGID_10_"  style="overflow:visible;"/>
	</clipPath>
	<defs>
		<filter id="Adobe_OpacityMaskFilter" filterUnits="userSpaceOnUse" x="123.3" y="571.5" width="26.8" height="13.1">
			<feColorMatrix  type="matrix" values="1 0 0 0 0  0 1 0 0 0  0 0 1 0 0  0 0 0 1 0"/>
		</filter>
	</defs>
	<mask maskUnits="userSpaceOnUse" x="123.3" y="571.5" width="26.8" height="13.1" id="SVGID_12_">
		<g class="st10">
			
				<linearGradient id="SVGID_13_" gradientUnits="userSpaceOnUse" x1="-602.394" y1="1281.1715" x2="-601.3878" y2="1281.1715" gradientTransform="matrix(26.6698 0 0 -26.6698 16189.0557 34746.6797)">
				<stop  offset="0" style="stop-color:#000000"/>
				<stop  offset="2.942959e-02" style="stop-color:#222222"/>
				<stop  offset="7.846583e-02" style="stop-color:#565656"/>
				<stop  offset="0.1298" style="stop-color:#838383"/>
				<stop  offset="0.1824" style="stop-color:#A9A9A9"/>
				<stop  offset="0.2366" style="stop-color:#C8C8C8"/>
				<stop  offset="0.293" style="stop-color:#E0E0E0"/>
				<stop  offset="0.3525" style="stop-color:#F2F2F2"/>
				<stop  offset="0.417" style="stop-color:#FCFCFC"/>
				<stop  offset="0.496" style="stop-color:#FFFFFF"/>
				<stop  offset="1" style="stop-color:#FFFFFF"/>
			</linearGradient>
			<rect x="123.3" y="571.5" class="st11" width="26.8" height="13.1"/>
		</g>
	</mask>
	
		<linearGradient id="SVGID_14_" gradientUnits="userSpaceOnUse" x1="-602.394" y1="1281.1715" x2="-601.3878" y2="1281.1715" gradientTransform="matrix(26.6698 0 0 -26.6698 16189.0557 34746.6797)">
		<stop  offset="0" style="stop-color:#8FAB72"/>
		<stop  offset="0.496" style="stop-color:#8FAB72"/>
		<stop  offset="1" style="stop-color:#8FAB72"/>
	</linearGradient>
	<rect x="123.3" y="571.5" class="st12" width="26.8" height="13.1"/>
</g>
<g>
	<defs>
		<polygon id="SVGID_15_" points="298.1,575.6 279.3,575.6 279.3,580.5 298.1,580.5 298.1,584.6 306.1,578.1 298.1,571.5 		"/>
	</defs>
	<clipPath id="SVGID_16_">
		<use xlink:href="#SVGID_15_"  style="overflow:visible;"/>
	</clipPath>
	<defs>
		<filter id="Adobe_OpacityMaskFilter_1_" filterUnits="userSpaceOnUse" x="279.3" y="571.5" width="26.8" height="13.1">
			<feColorMatrix  type="matrix" values="1 0 0 0 0  0 1 0 0 0  0 0 1 0 0  0 0 0 1 0"/>
		</filter>
	</defs>
	<mask maskUnits="userSpaceOnUse" x="279.3" y="571.5" width="26.8" height="13.1" id="SVGID_17_">
		<g class="st13">
			
				<linearGradient id="SVGID_18_" gradientUnits="userSpaceOnUse" x1="-602.4324" y1="1281.1715" x2="-601.4263" y2="1281.1715" gradientTransform="matrix(26.6698 0 0 -26.6698 16346.0557 34746.6797)">
				<stop  offset="0" style="stop-color:#000000"/>
				<stop  offset="2.942959e-02" style="stop-color:#222222"/>
				<stop  offset="7.846583e-02" style="stop-color:#565656"/>
				<stop  offset="0.1298" style="stop-color:#838383"/>
				<stop  offset="0.1824" style="stop-color:#A9A9A9"/>
				<stop  offset="0.2366" style="stop-color:#C8C8C8"/>
				<stop  offset="0.293" style="stop-color:#E0E0E0"/>
				<stop  offset="0.3525" style="stop-color:#F2F2F2"/>
				<stop  offset="0.417" style="stop-color:#FCFCFC"/>
				<stop  offset="0.496" style="stop-color:#FFFFFF"/>
				<stop  offset="1" style="stop-color:#FFFFFF"/>
			</linearGradient>
			<rect x="279.3" y="571.5" class="st14" width="26.8" height="13.1"/>
		</g>
	</mask>
	
		<linearGradient id="SVGID_19_" gradientUnits="userSpaceOnUse" x1="-602.4324" y1="1281.1715" x2="-601.4263" y2="1281.1715" gradientTransform="matrix(26.6698 0 0 -26.6698 16346.0557 34746.6797)">
		<stop  offset="0" style="stop-color:#8FAB72"/>
		<stop  offset="0.496" style="stop-color:#8FAB72"/>
		<stop  offset="1" style="stop-color:#8FAB72"/>
	</linearGradient>
	<rect x="279.3" y="571.5" class="st15" width="26.8" height="13.1"/>
</g>
<path class="st16" d="M368.9,580.4l-22.5-18.8l20.7-24.8c5.2-6.2,14.5-7,20.7-1.8h0c6.2,5.2,7,14.5,1.8,20.7L368.9,580.4z"/>
<path class="st9" d="M346.8,559.1l24.1,20.2l-20.2,24.5c-5.6,6.7-15.5,7.5-22.1,2h0c-6.7-5.6-7.5-15.5-2-22.1L346.8,559.1z"/>
<path class="st17" d="M353.8,557.6c5.2-7.3,8.5-11.6,14.5-18.7c3.7-4.3,6.4-4.7,9.1-5c2.7-0.3,7.3,1.2,8.8,3.4"/>
<path class="st17" d="M355.8,555.8c0.8,0.6,1.7,1.1,2.5,1.7"/>
<path class="st17" d="M357.8,552.8c1.1,0.8,2.3,1.6,3.4,2.4"/>
<path class="st17" d="M359.8,550.5c1.3,0.9,2.6,1.9,3.9,2.8"/>
<path class="st17" d="M363.6,549.7c-0.6-0.4-1.2-0.7-1.8-1.1C362.2,549,363.1,549.3,363.6,549.7z"/>
<path class="st17" d="M369.4,570.2c1,0.7,2,1.4,2.9,2.1"/>
<path class="st17" d="M371.4,567.9c0.6,0.7,1.2,1.3,1.9,2"/>
<path class="st17" d="M375.3,566.4c0.3,0.3,0.5,0.6,0.8,0.9"/>
<path class="st17" d="M378.2,562.5c0.2,0.3,0.5,0.7,0.7,1"/>
<path class="st18" d="M368.8,577.6c-6.4,7.9-12.8,15.9-20.1,23c-2,2-4.2,3.9-6.9,4.8c-2.7,0.8-6.1,0.2-7.6-2.1"/>
<path class="st18" d="M336.7,601.4c0.9,1.8,2.8,3.2,4.8,3.6"/>
<path class="st18" d="M340.4,601.2c0.4,0.3,0.8,0.6,1.1,0.9c0.2,0.2,0.4,0.6,0.6,0.7c0.2,0.1,0.5,0.1,0.7,0.2c0.7,0.3,1.3,0.4,2,0.6
	"/>
<path class="st18" d="M344.2,599.3c-0.1,0.3,0.4,0.4,0.6,0.5c0.5,0.3,0.8,0.7,1.3,0.9c0.3,0.1,1.9,0.7,1.8,0.2"/>
<g class="st19">
	<g>
		<defs>
			<rect id="SVGID_20_" x="252.4" y="255.2" width="20.6" height="27.1"/>
		</defs>
		<clipPath id="SVGID_21_">
			<use xlink:href="#SVGID_20_"  style="overflow:visible;"/>
		</clipPath>
		<path class="st20" d="M266.7,282.3c0,0-4.8-3.2-5.6-4s-1.6-1.2-2-1.6c-0.4-0.4-2-1.6-2.4-2l-2-2c0.4-0.4,0-2,0-2s-1.2-1.6-1.6-2
			c-0.4-0.4-1.2-1.2-0.4-1.2s0.4,0,0.4-0.8s0.4-1.6,0.4-1.6v-1.6l-0.4-2.4v-0.8l3.2-2l6.3-2.8l3.7-0.5c0,0,5.8,5.2,6.2,5.6
			c0.4,0.4-0.8,1.2-1.2,2c-0.4,0.8-0.4,2.4-0.4,2.4l-0.4,1.6l-0.8,2v1.6l0.8,2.4l0.4,2.4l0.8,2.4c0,0,1.2,1.2,1.2,1.6
			S266.7,282.3,266.7,282.3"/>
	</g>
</g>
<path class="st6" d="M369.1,214.9"/>
<g>
	<g>
		<path class="st6" d="M259.3,263.3c0,0-22-84.3,53.4-131.9"/>
		<g>
			<polygon points="312.5,134.1 312,134 312.6,131.6 310.1,131.2 310.2,130.7 313.2,131.2 			"/>
		</g>
	</g>
</g>
<path class="st9" d="M63.3,211.5c-0.8-1.1-1.3-2-1.6-3c-0.3-1.1,0.4-2.2,0.4-2.2s1,2.6,1.9,3.3c0.9,0.7,0.7-0.9,0.1-2.1
	c-0.6-1.2-0.1-2.6-0.5-3.9c-0.4-1.3-1.2-1.9-1.2-1.9l0.8-0.5c0,0,1.4-5.1,2-5.9c0.6-0.8,2.6-3.2,2.9-4.7c0.3-1.5-0.4-2.8,0-3.7
	c0.4-0.9,0.5-0.9,0.2-2.1c-0.3-1.2,0.4-1.7,1-2.8c0.6-1.2,1.4-2.3,1.5-1.8c0.1,0.5,0.8,3.1,1.5,4.8c0.7,1.7-0.1,2.9-0.1,2.9
	l-0.8,2.5l0.4,1.2l-0.5,1.2l-0.5,2.3c0,0-0.5,5.7-1.1,8.8c-0.6,3.1,1.1,19.9,1.5,20.6c0.4,0.8,0.6,2.2,0.2,4.6
	c-0.4,2.3-0.8,6.9-0.8,6.9l0.7,20l1.1,0.2l0.1,0.7c0,0-0.4,2.7-0.7,3.7c-0.3,1-1.4,2.5-1.8,4c-0.2,0.9-0.2,2-0.1,2.7h7.7
	c0.3-0.5,0.5-1.1,0.6-1.5c0.3-1-0.5-2.6-0.7-3.6c-0.2-1-0.2-2.2,0-2.8c0.2-0.7,0.3-1.2,0.1-1.6c-0.2-0.4-0.1-2.3-0.1-2.3l1.6-0.4
	l0-1.6l-0.3-13.8c0,0,0.3-4.5,0-5.9c-0.3-1.4,0.3-3.1,0.7-4.1c0.3-1,0.3-0.7,0-1.4c-0.3-0.7,0-1.4,0.3-2.4c0.3-1-0.3-1.4,0.3-1.7
	c0.7-0.3,0-2.4,0-3.1v-6.9l0.3-4.2l0.2-0.9l0.2,0.9l0.3,4.2v6.9c0,0.7-0.7,2.8,0,3.1c0.7,0.3,0,0.7,0.3,1.7c0.3,1,0.7,1.7,0.3,2.4
	c-0.3,0.7-0.3,0.3,0,1.4c0.3,1,1,2.8,0.7,4.1c-0.3,1.4,0,5.9,0,5.9l-0.3,13.8l0,1.6l1.6,0.4c0,0,0.1,2-0.1,2.3
	c-0.2,0.4-0.1,0.9,0.1,1.6c0.2,0.7,0.2,1.9,0,2.8c-0.2,1-1,2.6-0.7,3.6c0.1,0.4,0.3,1,0.6,1.5h7.7c0.1-0.7,0.1-1.8-0.1-2.7
	c-0.4-1.5-1.5-3-1.8-4c-0.3-1-0.7-3.7-0.7-3.7l0.1-0.7l1.1-0.2l0.7-20c0,0-0.4-4.6-0.8-6.9c-0.4-2.3-0.2-3.8,0.2-4.6
	c0.4-0.8,2.1-17.5,1.5-20.6c-0.6-3.1-1.1-8.8-1.1-8.8l-0.5-2.3l-0.5-1.2l0.4-1.2l-0.8-2.5c0,0-0.8-1.3-0.1-2.9
	c0.7-1.7,1.4-4.3,1.5-4.8c0.1-0.5,0.9,0.6,1.5,1.8c0.6,1.2,1.3,1.7,1,2.8c-0.3,1.2-0.2,1.2,0.2,2.1c0.4,0.9-0.3,2.2,0,3.7
	c0.3,1.5,2.3,3.9,2.9,4.7c0.6,0.8,2,5.9,2,5.9l0.8,0.5c0,0-0.8,0.6-1.2,1.9c-0.4,1.3,0.1,2.7-0.5,3.9c-0.6,1.2-0.8,2.7,0.1,2.1
	c0.9-0.7,1.9-3.3,1.9-3.3s0.7,1.1,0.4,2.2c-0.3,1.1-0.8,2-1.6,3c-0.8,1.1-1,2.3-0.1,1.8c0.9-0.6,3-1.8,3.2-2.7
	c0.2-1,1.2-4.7,1.2-4.7l-1-4.9l0.8-1c0,0-2.2-12-2.3-12.5c-0.2-0.5-1.6-5.6-1.6-5.6s-1-2.9-0.8-3.4c0.2-0.5-0.7-1.4-0.8-2.1
	c-0.1-0.7,0.2-5.7-0.3-6.6c-0.5-0.9-0.3-2.8-3.8-4c-3.5-1.2-7.5-3.4-7.5-3.4l0.3-1.9l-1-1.3l0.7-1l1-1.7c0,0,1,0.3,1-0.7v-3.4
	l-0.7,0.3c0,0,0.7-1.7,0-3.4c-0.7-1.7-1.4-3.4-2.4-3.8c-0.9-0.3-2.4-0.8-3.3-0.8c-0.9,0-2.5,0.5-3.3,0.8c-1,0.3-1.7,2.1-2.4,3.8
	c-0.7,1.7,0,3.4,0,3.4l-0.7-0.3v3.4c0,1,1,0.7,1,0.7l1,1.7l0.7,1l-1,1.3l0.3,1.9c0,0-4,2.3-7.5,3.4c-3.5,1.2-3.3,3.1-3.8,4
	c-0.5,0.9-0.2,5.9-0.3,6.6c-0.1,0.7-1,1.6-0.8,2.1c0.2,0.5-0.8,3.4-0.8,3.4s-1.4,5.1-1.6,5.6c-0.2,0.5-2.3,12.5-2.3,12.5l0.8,1
	l-1,4.9c0,0,1,3.7,1.2,4.7c0.2,1,2.3,2.2,3.2,2.7C64.3,213.9,64.1,212.6,63.3,211.5"/>
<path class="st21" d="M4.3,261.7c0,0-1.2,0.2-1.7,0.6c-0.6,0.4-1.6,1.2-1.3,0.5s0.3-2,1.3-3.5c1.1-1.4,1.2-1.9,1.9-2.5
	s1-0.8,1.8-1.3c0.9-0.6,1.1-0.8,2.3-1.3c1.2-0.6,2.5-0.6,3.9-1.3c1.4-0.8,1.7-1.1,2.9-1.2c1.2-0.2,1.7-0.5,2.4-0.6
	c0.7-0.1,2.2-0.6,3.3-1c1.1-0.4,2.6-0.9,2.6-0.9s-1.2-0.4-0.9-0.4c0.4,0,1.1-0.2,2-0.3c1-0.1,2-0.4,2-0.4s-0.1-0.7,1.1-0.8
	c1.2-0.1,1.8-0.3,1.8-0.3l-0.2-0.4c0,0,0.2-0.2,1.2-0.4c1.1-0.2,2.9-0.6,2.9-0.6l-1.2-0.3c0,0,0.7-0.2,1.7-0.5
	c1.1-0.3,1.5-0.4,1.9-0.5l0.8-0.2c0,0-0.7-0.2-0.9-0.2s0.8-0.3,0.8-0.3l1.4-0.3c0,0,0.8,0,1.2-0.2c0.4-0.2,0-0.4,0-0.4l0.4-0.1
	c0,0-0.3,0.2,1.2-0.4c1.4-0.6,1.8-0.7,1.8-0.7l0.8-0.2h-1.2l0.8-0.3l1.1-0.2l0.5-0.2l0.4-0.1c0,0,0.6-0.7,1-1
	c0.4-0.3,0.8-0.3,0.8-0.3l1-0.3l0.6-0.1h-1.4c-0.5,0,0.7-0.3,0.7-0.3l2.9-0.5l1.2-0.3l-0.7-0.2l1.2-0.2c0,0,0.1-0.1,1.2-0.2l1.1-0.1
	c0,0,1.6-0.3,2.6-0.4c1-0.1,2.2-0.1,2.2-0.1l1.2,0.2l0.8-0.2H62l1.2,0.1c0,0-1.1-0.4-0.8-0.4c0.3,0,1.3,0.2,1.3,0.2s1.2,0.2,1.5,0.2
	c0.3,0,1.4,0.5,1.8,0.5c0.4,0,0.5-0.4,0.5-0.4l1.2,0.3c0,0,2.6,1.2,3.2,1.4c0.6,0.2,0.1-0.5,0.1-0.5l2.2,1.1c0,0,0.9,1.1,1.1,1.2
	c0.2,0.1,0.4-0.3,0.4-0.3s1.2,0.8,1.5,1.1c0.4,0.3,0.7,1.1,0.7,1.1l0.4,0.4l0.1-0.4l1.2,1l1.4,1.5c0,0,0.9,0.8,1.5,1.3
	c0.7,0.6,1.5,1.7,1.9,2.1c0.4,0.4,0.9,1.1,1.3,1.4c0.5,0.4,1.4,1.7,1.9,2.3c0.5,0.6,1.8,1.8,2.7,2.3c0.9,0.5,0.9,0.6,1.3,0.9
	c0.5,0.3,0.3-0.3,0.6,0.1c0.3,0.4,0.2,0.5,0.5,0.9c0.3,0.4,1.4,2.9,1.8,3.6c0.4,0.7,0.7,1.2,1,1.5c0.3,0.3,0.4,0.5,0.7,0.8
	c0.3,0.3,0.6,0.4,0.5,0.8c-0.1,0.4-0.4,1-0.9,1.1c-0.5,0.1-0.9,0-1.3-0.1c-0.5-0.1-2.5-1.8-3-1.9c-0.5-0.1-0.7-0.2-1.3-0.3
	c-0.7-0.1-1.7-0.1-2.5-0.7c-0.8-0.6-1.5-1.3-2.3-1.3c-0.8,0-0.9,0-1.3-0.1c-0.5-0.1-1.2-0.5-1.2-0.5l-0.6,0.3c0,0-0.2,0.2-0.4-0.2
	c-0.2-0.4,0.2-0.6-0.2-0.4c-0.4,0.2-0.4,0.3-0.7,0.2l-0.3-0.1c0,0-0.6,0.5-0.7,1.1c-0.1,0.6,0.3,1.2,0.3,1.2l0.5,0.4l-0.5,0.3
	l-0.1,0.5l-0.1,1l-0.5,0.6v0.5h0.8l0.3,0.6l0.8,0.4c0,0,0.6,0.3,0.6,0.9c0,0.6-0.4,0.6-0.5,0.8c-0.1,0.2-0.3,0.4-0.3,0.2
	c0-0.2,0.2-0.2-0.1-0.6c-0.3-0.4-0.7-0.4-0.7-0.4s-0.4,0-0.9,0.3s-1.7,0.8-2.4,1c-0.7,0.2-2.1,0-2.8-0.8c-0.7-0.8-0.8-0.8-0.8-1.5
	v-1.5c0,0,0.1-0.7-0.1-0.9c-0.2-0.2-0.4-0.5-0.7-0.8c-0.3-0.3-0.4-0.8-0.1-0.7c0.3,0.1-0.3-0.4-0.6-0.5c-0.3-0.1-0.8-0.4-0.8-0.6
	c0-0.2,0.3-0.2,0.5-0.4c0.2-0.2-0.3-0.2-0.5-0.4c-0.2-0.2-0.5-0.1-0.6-0.4c-0.1-0.3-0.3-0.5-0.3-0.6c0-0.1,0.4-0.3,0.4-0.3l-1.7-1.5
	c0,0-1,0.3-1.2,0.4c-0.2,0.1-0.8,0.5-1.2,0.5c-0.4,0-0.2,0,0-0.3c0.2-0.3,0.6-0.2,0.2-0.3c-0.4-0.1-1.3-0.4-1.5-0.3
	c-0.2,0.1-0.4,0.1-0.4,0.1l-1.7,0.7l-0.9,0.3l-0.2,1.8l0.7,1.4c0,0,0.3,0.6,1,1.3c0.7,0.8,1.2,1.3,1.2,1.3s0.8,0.8,1,1.3
	s0.3,1,0.2,1.2s-2.2,0.6-3.1,0.4c-0.9-0.2-2.3,0.5-3.5,0c-1.2-0.5-1.7-1.4-1.7-1.4s-0.5-1.2-0.4-2.5c0.1-1.2-0.1-2.5-0.1-2.5
	l-0.6-1.2l-0.7-1.3l-1.1,1.7c0,0,0.4-1.2,0-0.8c-0.4,0.5-1.4,1.2-1.4,1.2l-1.1,0.9l-0.6,1l-0.7,1.5l-0.2,1.2l0.5,0.6l0.7,0.1
	c0,0,1.1,0.4,1.2,0.7c0.2,0.3,0.4,0.3,0.4,0.5c0,0.2,0.3,0.2,0,0.2c-0.3,0-0.6-0.1-1-0.2c-0.4-0.1-1-0.2-1-0.2s-1.8,0.5-2.5,0.4
	c-0.7-0.1-0.7-0.4-1.3-0.2c-0.7,0.2-0.7,0.1-1.2,0.2c-0.6,0.1-0.8,0.3-1.2,0.2c-0.5-0.1-1.1-0.6-1.1-0.6v-1.6c0,0-0.1-1.2,0.3-2.1
	c0.4-1,0.5-1.2,1.4-2.2c1-1,1.2-1.2,1.5-1.4c0.3-0.3,0.6-0.7,0.6-0.7h-0.6l0.8-0.8l0.9-1l-0.1-0.4l0.3-0.9l0.1-1.2v-0.8
	c-0.6-0.2-0.9-0.3-0.8-0.5c0.1-0.2,0.3-0.9,0.3-0.9v-0.5c0,0-1.4,1-1.3,0.6c0.1-0.4-0.1-0.6-0.1-0.6l-0.9-0.2l-0.6-0.4
	c0,0-0.1,0-0.8,0.5c-0.7,0.5-0.8,0.7-1,0.6c-0.2-0.1-0.4-0.4-0.7-0.3c-0.3,0.1-1,0.4-1,0.4l-0.2-0.7c0,0-1.2,1.3-1.6,1.6
	c-0.5,0.3-1.1,0.9-1.1,0.6s0.2-0.1,0-0.3c-0.2-0.2-0.5-0.2-0.9,0c-0.4,0.2-0.5,0.7-0.8,0.5l-0.4-0.3c0,0-0.3,0.2-1.2,0.7
	c-1,0.5-1.3,1-1.3,0.7s0.3-0.7,0.1-0.7c-0.2,0-0.6,0.1-0.6,0.1s-0.6,0.4-1.2,0.6c-0.7,0.2-1,0.4-1.2,0.2c-0.2-0.2,0.1-0.3-0.7,0
	c-0.8,0.3-0.6,0.3-1.1,0.4c-0.5,0.1-0.6,0.4-0.9,0.4c-0.3,0-0.7-0.3-0.9-0.3c-0.2,0-0.6,0.3-0.9,0.5c-0.3,0.2-0.4,0.5-1.4,0.7
	l-1.1,0.2l-0.3-0.6l-0.6-0.2l-0.5,0.6c0,0-1.7,1-2.2,1.1c-0.5,0.1-1.5,0.3-1.3,0c0.2-0.3,0.5-0.5,0.5-0.5s-0.9-0.1-0.6-0.3
	c0.3-0.2,0.6-0.4,0.6-0.4s-1.2,1-2,1c-0.8,0-1.2-0.2-1.3-0.4c-0.1-0.2-0.3-0.5-0.3-0.5s-2.3,1.2-2.8,1.3c-0.5,0.2-0.7,0.5-0.7,0.2
	s-0.1-1-0.1-1s-0.3,0.3-1.1,0.7c-0.8,0.4-1.2,0.4-1.6,0.6c-0.4,0.2-0.8,0.1-0.8,0.1l-0.3-0.6c0,0-2,1-2.2,1.1
	c-0.2,0.1-0.5,0.4-0.5,0.4l-0.6-0.2c0,0-0.1,0.4-0.4,0.6c-0.3,0.2-1,0.5-1.2,0.7c-0.3,0.2-0.7,0.3-0.7,0.3l-0.7-0.2L4.3,261.7z"/>
<path class="st6" d="M454.6,445c-1,16.8,6.1,31.2,14.7,41.6"/>
<polyline points="500.7,420 503.1,420.4 503.4,418 "/>
<path class="st6" d="M-81.3,631.5c8.6-10.4,15.7-24.8,14.7-41.6"/>
<polyline points="500.7,420 503.1,420.4 503.4,418 "/>
<line class="st22" x1="70" y1="336.7" x2="70" y2="355.4"/>
<text transform="matrix(1 0 0 1 20 470.0435)" class="st23 st24">Medicinal use</text>
<path class="st25" d="M385.2,341.7c11.1-4.9,21.1-28.8,19.8-39.6"/>
<line class="st22" x1="330" y1="370" x2="330" y2="401.5"/>
</svg>
