<?xml version="1.0" encoding="utf-8"?>
<!-- Generator: Adobe Illustrator 25.4.6, SVG Export Plug-In . SVG Version: 6.00 Build 0)  -->
<svg version="1.1" id="Layer_1" xmlns="http://www.w3.org/2000/svg" xmlns:xlink="http://www.w3.org/1999/xlink" x="0px" y="0px"
	 viewBox="0 0 320 1010" style="enable-background:new 0 0 320 1010;" xml:space="preserve">
<style type="text/css">
    @import url('https://fonts.googleapis.com/css?family=Roboto:100,300,400,500,600,700');
	.st0{fill:url(#SVGID_1_);}
	.st1{fill:none;stroke:#919191;stroke-width:1.5;stroke-miterlimit:10;}
	.st2{fill:none;stroke:#919191;stroke-miterlimit:10;}
	.st3{font-family:'Roboto';font-weight:300;}
	.st4{font-size:14px;}
	.st5{fill:none;stroke:#000000;stroke-width:0.5;stroke-miterlimit:10;}
	.st6{font-family:'Roboto';font-weight:500;}
	.st7{fill:none;stroke:#FD3C00;stroke-width:0.75;stroke-miterlimit:10;}
	.st8{fill:#FD3C00;}
</style>
<g>
	<linearGradient id="SVGID_1_" gradientUnits="userSpaceOnUse" x1="165.81705" y1="929.7041" x2="165.81705" y2="872.82404">
		<stop  offset="0" style="stop-color:#FFFFFF"/>
		<stop  offset="1" style="stop-color:#F3CB9F"/>
	</linearGradient>
	<rect x="-14.96261" y="895.65155" class="st0" width="361.5593" height="53.96408"/>
	<path class="st1" d="M-9.69469,905.93042c0,0,7.58067-1.54181,12.84859-1.54181s12.7201-0.38544,17.34559,0
		s11.30676,0.68524,11.30676,0.68524"/>
	<path class="st1" d="M30.5214,906.7442c0,0,1.62749-1.11359,1.88446-3.68329c0.25697-2.5697,0.17132-10.02191,1.1992-11.64935
		c1.02789-1.6275,0.94223-2.39844,1.54183-4.2829c0.5996-1.88446,1.11354-2.82666,1.7988-4.1972
		c0.68526-1.37048,0-5.1394,1.37052-6.42432c1.37051-1.28485,4.45417-4.53979,5.22509-5.99597s0.77092-1.97015,0.77092-1.97015
		s-0.51394,11.39246-0.51394,13.7052s0.5996,2.14142,1.11354,3.42627s1.54183,8.22308,0.34263,9.33667
		c-1.1992,1.11353-1.97012,6.59558-1.1992,7.88043c0.77091,1.28485,4.28286,0.85657,5.91035,2.56976
		c1.62749,1.71313,3.25497,2.93622,5.22509,2.79578"/>
	<path class="st1" d="M47.52685,904.21729c0,0,8.09213-0.21411,10.87599,0c2.78386,0.21417,18.71611,0.51398,22.61352,0.81378
		c3.89741,0.29974,21.20017,1.58466,23.85555,0.89935c2.65537-0.68524,5.31075-2.82666,6.59561-2.5697
		s1.84163,0.94226,1.84163,0.94226"/>
	<path class="st1" d="M109.84003,907.17249c0,0,4.11155-2.82672,6.25298-7.23804c2.14143-4.41138,3.98306-8.4801,4.49701-10.27887
		c0.51395-1.79883,0.77091-2.56976,0.94223-2.74103c0.17131-0.17133,0.12849-3.72614,1.11354-4.2829
		c0.98506-0.55676,1.32769-0.6424,1.32769-0.6424s2.74104-26.29681,2.74104-28.00995s-0.5996-2.82672-0.5996-2.82672
		s0.34263-1.71313,0.5996-2.65533c0.25697-0.94226-1.1992-2.05579-1.11355-2.31274s1.1992-0.77094,1.54183-2.99805
		c0.34263-2.22705,3.51195-36.83258,3.42628-39.91626c-0.08565-3.08368-1.19919-4.45416-1.19919-4.45416
		s1.54182-0.59961,1.62749-1.6275c0.08565-1.02789-1.4615-1.92114-1.4615-1.92114s1.71846-2.53302,2.31807-7.07288
		c0.59959-4.53986,1.62749-23.12744,0.77092-26.81073"/>
	<path class="st1" d="M128.17068,911.19836c0,0,7.96613-14.90436,8.35158-18.11652s1.61406-2.67639,1.25673-3.71515
		c-0.35733-1.03882-0.35733-2.06671-0.35733-2.19519s1.54184-1.02789,1.15637-2.31274
		c-0.38545-1.28485,1.54184-32.25,2.31274-33.40637c0.77092-1.15637,0.77092-1.15637,0.77092-1.15637s-1.02789-0.77087,0-2.05573
		c1.02789-1.28491,1.02789-1.28491,1.02789-1.28491s-0.12849-1.79877-0.51395-5.01093
		c-0.38547-3.21216,2.18427-36.36151,2.95517-39.18817c0.77092-2.82672,0.77092-2.82672,0.77092-2.82672
		s-1.41335,0.51398-1.02789-1.15637c0.38547-1.67029,1.79419-2.48364,1.79419-2.48364s-1.02327-2.14185-0.89479-6.63885
		c0.12849-4.49701,0.25697-26.3396,1.79881-29.16632"/>
	<path class="st1" d="M122.77427,912.22626c0,0,5.13943-1.54181,8.86553-2.44122c3.72609-0.89941,2.56972-2.99805,5.26791-4.71118
		c2.69821-1.71313,3.85458-0.81372,6.55278-3.12646c2.69821-2.31274,5.01096-4.75397,5.01096-4.75397
		s-0.38545,3.55499-3.08366,6.146c-2.6982,2.591-5.39641,7.85895-5.39641,7.85895"/>
	<path class="st1" d="M131.76836,904.21729c0,0,3.92043,0.95441,4.10092,1.71313"/>
	<path class="st1" d="M143.2108,905.93042c0.37991-0.51263,9.75766-1.54181,13.48375-1.22058s14.91724-0.49255,14.91724-0.49255"/>
	<path class="st1" d="M327.93787,902.547c-2.5697,0.25696-11.17825-1.02789-13.74799-0.51398
		c-2.5697,0.51398-10.40735,1.45618-12.46313,0.55676c-2.05576-0.89935-4.75397-7.19519-5.01093-8.99402
		c-0.25699-1.79877-0.77094-1.67029-0.77094-3.98303s1.41336-14.26196,1.67032-15.16132
		c0.25699-0.89941-0.25696-1.15637-0.7709-2.44122c-0.51395-1.28491-2.05579-13.61951-1.02789-12.20618s0-2.9552-0.89941-5.13947
		c-0.89938-2.18427,0.38547-5.78186,0.77094-9.1225c0.38544-3.34064-5.78186-12.72009-5.78186-12.72009
		s0.64243,5.13947-0.64246,9.37946c-1.28485,4.24005-1.92728,6.29584-1.7988,7.32373c0.12851,1.02789,0.12851,3.85455,0,7.96613
		c-0.12848,4.11151-0.38544,2.82666-0.89938,6.68127c-0.51395,3.85455,0.51395,12.33459,0,14.64734
		c-0.51395,2.31281-1.41336,2.18427-1.41336,2.18427s0.12848,5.26794-1.67032,12.0777s-8.48007,7.83765-6.93823,8.73706
		c0,0-7.93774,0.89941-12.82022,0.25696s-7.45218,0.51392-11.04979-0.38544c-3.5976-0.89941-10.27887,0.12848-12.33464-1.54187
		c-2.05577-1.67029-6.80975-3.72607-7.45218-7.06671c-0.64244-3.34064-1.15637-6.29578,0.8994-7.58069
		c0,0-1.67032-0.25696-4.75398,7.70917s-9.50795,10.97003-12.46313,11.52386c-2.95517,0.55383-6.93823-0.02435-6.93823-0.02435
		c-4.36852,0.57819-21.32866-0.96368-23.38443-1.37042s-1.67032-8.71576-1.54184-11.41394
		c0.12849-2.69818,0.64244-5.39642,0-6.93823c-0.64243-1.54181-0.8994-1.67035-0.7709-4.24005
		c0.12848-2.5697-2.56972-6.03882-3.21216-6.5528c-0.64243-0.51392-1.28485,0.77094-2.05577,3.21216
		s-3.34064,4.49701-5.26791,7.70917c-1.92729,3.21216-0.77092,14.13342-1.15637,16.96014
		c-0.38547,2.82666-2.69821,4.0531-2.69821,4.0531"/>
	<path class="st1" d="M331.86365,914.19635c0,0-24.84061-1.71313-30.49399-1.19916c-5.65338,0.51392-2.5697,2.95514-2.31274,3.98303
		c0.25699,1.02789,0.89941,5.13947,2.44122,7.32373c1.54184,2.1842,5.78189,6.1673,7.96613,7.19519
		c2.18427,1.02789,5.46149,1.28485,5.46149,1.28485"/>
	<path class="st1" d="M259.61176,931.88458c0,0,2.18427-1.92731,3.98306-3.34064s2.95517,0,5.26791,0
		s3.34064-1.92725,6.68127-4.23999c3.34064-2.31281,5.5249-1.92731,7.70914-3.98309c2.18427-2.05579,1.92731-5.5249,1.92731-5.5249
		s0.7709,0.12848-2.05579,0s-18.75894,0.12848-21.32864,0.64246c-2.56973,0.51392-20.1723,0.77087-22.61353,0.51392
		c-2.44124-0.25696-5.26793-2.89215-6.4243-1.18909s0,3.11639,1.41335,5.30066s4.11156,1.79877,3.34064,4.62549
		c-0.77092,2.82666-3.78909,0.50806-3.43639,4.3656"/>
	<path class="st1" d="M217.72534,927.25909c0,0,4.88248-8.99402,4.11156-11.0498c-0.77092-2.05573-3.59761-3.78992-5.39641-3.30829
		s-11.30676,1.84705-14.39043,1.29279c-3.08366-0.5542-8.73703-0.81116-9.25098,0.85913
		c-0.51395,1.67035-1.54184-0.12848-0.51395,1.67035c1.02789,1.79877,3.34064,3.62988,3.59761,6.1192s-2.56972,5.573-2.56972,5.573"
		/>
	<path class="st1" d="M180.46443,929.31488c0,0,3.46913-4.19977,4.11156-6.2757c0.64243-2.07587-0.64243-2.58984,0-5.03107
		s0.64243-1.41333,0.64243-2.44122s-10.15039-0.77094-14.51891-0.51398c-4.36852,0.25702-8.2231,1.54187-11.94919,1.79883
		s-8.86552,0-10.27887,0.77094c-1.41335,0.77087-5.26065,1.41333-5.26065,1.41333s0.24969,2.47351,1.66304,3.80646
		s2.56972,0.81903,5.13943,1.9754s3.85458,2.31274,5.26793,3.5976s6.29581,3.72607,9.89342,4.36853
		c3.5976,0.64246,0-0.25696,4.36852,0.89941s5.32126,0.60632,5.32126,0.60632"/>
	<path class="st1" d="M68.55322,977.24011c4.36852-0.38544,8.86552-5.5249,10.15039-8.35156
		c1.28486-2.82672,6.29581-5.65338,7.83764-6.29584c1.54182-0.6424,2.82668-2.44122,4.11155-5.5249
		c1.28486-3.08362,4.11154-7.45215,7.06672-9.63641s11.17828-14.51892,12.12051-16.57471s0.98505-6.42426,0.98505-8.01422
		c0-1.5899-1.54183-3.16406-7.70915-4.0387c-6.16732-0.87469-20.9432-1.18109-28.2669-0.28174
		c-7.32369,0.89941-15.03285-0.6424-20.17228-0.6424s-8.86826,0.34088-8.86826,0.34088s-0.64517,0.25269,0,2.39716
		c0.64517,2.14441,0.00274,3.16559,2.187,4.00409c2.18426,0.83856,1.67032,3.15131,2.18426,3.7937
		c0.51394,0.64246,1.92729,3.34064,6.80975,4.24005s9.25098-1.15637,11.30676,2.44122"/>
	<path class="st1" d="M-9.69469,916.46631c0,0,16.18922-2.25848,20.75047-1.64319s1.73456,2.1571,8.28734,1.64319
		c6.55278-0.51398,7.83764-2.03174,10.66433-0.82312c2.82669,1.20856,3.5976,0.9516,3.5976,2.75037
		c0,1.79883,0.8994,4.10486-0.51394,6.22821c-1.41335,2.12341-3.85458,4.05066-6.29581,5.72101
		c-2.44123,1.67029-2.44123,3.98303-4.24003,5.39642c-1.7988,1.41333-5.6283,2.05573-10.45906,1.28485"/>
	<path class="st1" d="M21.46581,936.38721c0,0-1.73723,3.59198-5.07786,6.4187c-3.34063,2.82666-5.65338,4.11151-9.25098,4.75397
		s-8.86553-3.08368-11.69222,0"/>
	<path class="st1" d="M14.12275,944.59009c0,0-5.82941,5.79645-9.5555,8.75165s-8.48007,4.36853-8.48007,4.36853"/>
	<path class="st1" d="M45.52174,920.0639c0,0,6.4568,1.92725,7.99863,3.85455s0.51394,3.21216,7.06672,3.46912
		s9.25098-3.60388,11.94919-1.35223"/>
	<path class="st1" d="M176.60986,956.42542c0,0-3.21214,0.77087-10.92131-1.54187c-7.70915-2.31274-2.82668-1.41333-6.68126-4.49701
		c-3.85458-3.08362-3.72609-1.92725-7.19521-4.62549c-3.46912-2.69818-7.70915-8.48004-9.50797-12.07764
		c-1.7988-3.5976-2.82669-2.18427-5.52489-5.26794c-2.69821-3.08368-3.72609-6.29578-3.82713-7.19519
		c-0.10103-0.89941,6.39685-0.6026,6.39685-0.6026s1.28485,0.45648,1.70244,1.23621
		c0.41757,0.77972,1.95941,2.66748,4.27216,5.54608c2.31274,2.87854,3.53336,3.39252,6.48854,5.4483
		c2.95517,2.05573,7.32368,4.43274,8.54431,8.92975"/>
	<path class="st1" d="M151.81209,945.76105c0,0,2.84683,6.03888,5.59921,8.86554c2.75237,2.82672,4.67966,1.92731,6.093,5.26794
		s4.6494,5.91034,7.72112,8.0946c3.0717,2.18427,4.61353-0.64246,7.18324,2.9552"/>
	<path class="st1" d="M118.61376,923.73193c0,0-4.8335,3.39868-7.27473,7.51025c-2.44123,4.11151-6.55278,12.59161-8.2231,14.00494
		s-4.62549,3.46912-6.68127,6.5528c-2.05577,3.08362-4.24004,3.5976-4.88246,6.55273
		c-0.64243,2.9552-1.79881,3.98309-3.46912,6.29584c-1.67031,2.31274-5.01095,3.08368-5.52489,7.32367
		c-0.51395,4.24005,2.82668,6.29584,0.77091,11.17828c-2.05577,4.88251-8.09461,8.86554-8.09461,8.86554"/>
	<path class="st1" d="M87.6097,965.21625c0,0-0.98732,4.95715,0,8.42627c0.98733,3.46912,3.04311,5.26794,2.40067,10.27887
		s-0.8994,7.32367,1.15637,8.0946"/>
	<path class="st1" d="M118.08933,922.11969c0,0,2.68861,7.12744,1.34431,12.30078c-1.34431,5.17328-4.66832,8.51392-6.1245,12.23999
		c-1.45617,3.72607-3.89741,6.42432-6.08167,7.96613c-2.18426,1.54187-7.19521,4.88245-7.96613,6.93823
		s-2.18426,6.03888-3.98306,7.96613c-1.79881,1.92731-2.07299,2.08563-2.68099,2.43665"/>
	<path class="st1" d="M130.09796,921.34875c0,0-0.7709,2.17798-0.51393,4.68658c0.25696,2.50861,1.21126,8.53522,3.36807,12.52441
		s1.64287,4.88855,4.91927,7.20129c3.27638,2.31274,8.80128,5.39642,10.60008,7.06677
		c1.7988,1.67029,3.46912,2.44122,4.49701,5.52484c1.02788,3.08368,3.08366,5.65338,3.08366,5.65338"/>
	<path class="st1" d="M123.38405,927.78137c0,0-1.63766,10.034-4.33587,14.7135c-2.6982,4.67957-3.72609,6.0929-4.36852,8.91956
		c-0.64243,2.82672-2.95517,3.98309-2.6982,8.73706c0.25697,4.75397,0.89941,5.65338,0.51395,8.99402
		s-3.34063,6.42432-3.85458,8.0946"/>
	<path class="st1" d="M112.4954,952.32001c0,0-4.8743,3.20599-6.29173,6.03265c-1.41743,2.82672-1.16045,5.63257-1.54591,6.86359
		c-0.38546,1.23108,0.64243,4.82867-0.8994,9.06866c-1.54183,4.24005-3.85458,4.49701-4.24004,7.96613"/>
	<path class="st1" d="M102.34502,959.89453c0,0,2.9575,6.93823,2.18542,11.0498"/>
	<path class="st1" d="M126.24339,927.39996c0,0-0.38546,10.90894,0,18.36108c0.38545,7.45221,0.38545,9.32141,1.92729,12.11292
		c1.54182,2.79144,4.87198,4.44098,5.64813,7.34229c0.77615,2.90137-0.88432,3.74927,3.21739,5.21411
		c4.1017,1.46484,7.96613-1.41333,9.1225,2.82672c1.15637,4.23999,1.41335,5.35907,1.41335,5.35907"/>
	<path class="st1" d="M123.4167,925.20331c0,0-0.25697,18.11652,0,21.07172c0.25697,2.95514,0.8994,4.48669,0.25697,10.27374
		c-0.64243,5.78699-2.31275,3.60272-2.82669,8.87067c-0.51395,5.26788-0.0181,2.30353-1.03694,6.54816
		s-2.04672,3.21674-4.48795,6.04346c-2.44123,2.82666-5.18227,3.46912-5.48206,7.06671c-0.2998,3.5976,0,5.39642,0,5.39642"/>
	<path class="st1" d="M43.77914,921.85388c0,0,4.53894,4.97351,4.39408,7.00159c-0.14486,2.02802-0.53115,5.50464,3.28349,9.65729
		c3.81464,4.15265,4.32843,3.60797,7.57231,6.07733c3.24387,2.46936,4.78904,5.07684,4.45104,8.60181"/>
	<path class="st1" d="M35.23242,924.26825c0,0-0.09658,7.91895,1.59346,10.961c1.69003,3.04205,1.69003,0.1449,1.93146,4.82867
		s-2.51192,5.55298-1.76297,11.8302c0.74895,6.27728-1.20069,4.29749,1.77802,8.64331
		c2.97871,4.34576,5.44133,5.16663,3.70301,8.11212"/>
	<path class="st1" d="M38.73706,939.67273c0,0-1.62146,6.61414-4.08408,8.35248c-2.46261,1.73834-5.23296-0.02173-6.16554,3.87622
		c-0.93258,3.89789-2.86404,7.08484-5.80952,7.42285"/>
	<path class="st2" d="M30.25891,949.49847c0,0-2.12461,3.5968-1.01402,6.34918c1.11059,2.75232,3.2352,5.93921,2.17289,9.12616
		c-1.0623,3.18689-3.18691,4.39404-3.18691,4.39404"/>
	<path class="st2" d="M46.51789,957.71027c0,0-5.01095-6.5528-4.94671-9.37946c0.06424-2.82672-0.4497-8.28735-2.76245-8.35162"/>
	<path class="st2" d="M48.6857,934.11652c0,0,5.02741,4.0639,9.13895,5.15601c4.11155,1.09216,8.03037-1.0921,10.79282,1.79883
		c2.76244,2.89093,2.76244,4.94672,2.76244,4.94672"/>
	<path class="st2" d="M17.61988,941.6629c0,0-1.55314,4.76324-1.16769,7.83557c0.38546,3.07233,0.65651,2.68689,0.5531,5.38507
		c-0.1034,2.69824,1.57244,2.18427-0.61458,5.01099c-2.18702,2.82666-3.40764,3.01941-3.40764,3.01941"/>
	<path class="st2" d="M26.79531,930.34277c0,0-2.63396,1.15637-4.56125,0.89941c-1.92729-0.25702-4.49701-0.79791-6.61702-0.43109
		s-6.03884,0-6.03884,0"/>
	<path class="st2" d="M35.92232,932.51251c0,0,0.83967,2.85834,0,4.84131s-2.25301,1.04608-3.40939,4.30908"/>
	<path class="st1" d="M38.73706,922.89056c0,0-0.18529,6.33307,1.80624,7.92053s4.17579,2.48682,4.62549,4.47839
		c0.4497,1.99152-0.96365,4.17578,1.7988,7.90186s4.36852,2.89093,5.26792,5.39642"/>
	<path class="st2" d="M45.67689,940.90552c0,0,0.26282,1.77191,0.84101,5.11255c0.57819,3.34064,2.34407,1.86304,2.1678,5.39636
		c-0.17627,3.53339-0.8187,4.4328-0.8187,4.4328"/>
	<path class="st2" d="M41.50694,923.73193c0,0,6.07272,3.95325,6.63397,5.57111"/>
	<path class="st2" d="M28.23087,907.17249c0,0-1.96119,1.64886-5.55295,1.71313c-3.59176,0.06421-8.92393-2.26691-10.85121-0.61951"
		/>
	<path class="st2" d="M38.7325,876.10767c0,0,2.19625,2.13403,3.35263,4.51105s2.13398,3.82684,2.13398,3.82684"/>
	<path class="st2" d="M45.48401,886.97876c0,0-1.7928,2.5697-3.97707,3.66187c-2.18426,1.0921-4.56125,0.70667-4.56125,0.70667"/>
	<path class="st2" d="M34.40422,888.40356c0,0,2.54148,1.46613,3.44088,3.97162c0.8994,2.50549,0.8994,5.26794,2.82669,6.87396
		c1.92729,1.60608,3.54733,1.41339,3.54733,1.41339"/>
	<path class="st2" d="M36.94569,893.91699c0,0-0.27901,5.84613,2.36597,7.51642c2.64498,1.67035,4.46748,0.89941,4.46748,0.89941"/>
	<path class="st2" d="M93.644,951.79504c0,0-6.58881,0.64728-8.64458,2.96002c-2.05578,2.31274-3.31134,4.60223-6.15268,4.6781"/>
	<path class="st2" d="M69.83808,969.36786c0,0,2.05578-4.65509,4.43276-5.36182c2.37699-0.70667,3.17897-1.16968,4.5759-1.9762
		s1.78416-1.42865,2.87629-1.49292c1.09212-0.06421,6.09238-0.27979,6.19409,1.11285"/>
	<path class="st2" d="M73.74972,964.22449c-1.42629,1.68469-4.8414,0.57068-5.6462-0.21844"/>
	<path class="st2" d="M84.2611,955.61731c0,0-2.40958,0.34827-4.0799,0"/>
	<path class="st2" d="M110.57126,927.78137c0,0-3.08432,3.71777-5.91225,5.38806c-2.82793,1.67035-7.44863,2.76135-7.99709,3.91827
		s-0.86967,1.59442-2.66848,1.47205s-3.6104,0.39154-4.82462,2.06189c-1.21422,1.67029-5.58274,9.18671-9.63005,10.53583"/>
	<path class="st2" d="M78.17341,942.9986c0,0,1.55809-1.64349,4.38478-1.33569c2.82668,0.30786,5.76189-0.72461,7.16479-1.68372"/>
	<path class="st2" d="M110.25198,921.34875c0,0,0.38037,1.34235-1.61116,3.27301s-5.01095,0.79095-6.55278,3.15961
		s-2.12002,4.93835-4.94671,5.06689"/>
	<path class="st2" d="M90.78128,928.86517c0,0,1.47759,1.67029,5.01096,1.4776c3.53336-0.19275,5.90309-1.92035,5.90309-1.92035"/>
	<path class="st2" d="M123.33681,944.21454c0,0-0.4983,4.43744-1.91164,6.94293s-2.66764,1.84656-2.81141,4.45667
		c-0.14377,2.61005-1.55711,6.33618-3.0347,6.59314"/>
	<path class="st2" d="M121.77728,961.86066c0,0-0.28786,8.12,0.61154,9.53333c0.8994,1.41339,1.22061,4.75403,0.8994,5.84613
		c-0.32121,1.09216,0.4497,5.20367,2.05577,6.68127"/>
	<path class="st2" d="M134.86601,969.36786c0,0-0.14255,4.6601-1.04196,6.39465c-0.8994,1.73456-1.22061,3.91882,0,5.58917"/>
	<path class="st2" d="M138.24059,946.01807c0,0-0.24074,2.82666,1.75079,5.1394s4.99644,1.33899,5.71037,4.45984
		s1.54909,5.94751,3.28365,7.68207s2.37698,1.99158,2.05577,3.08368"/>
	<path class="st2" d="M139.99138,951.15747c0,0,1.41335,1.28485,1.28487,4.11157c-0.12849,2.82666,0.83516,4.62549,0.83516,4.62549"
		/>
	<path class="st2" d="M141.44357,932.24115c0,0,3.04482,1.63495,4.26543,2.85559c1.22063,1.22064,5.01096,5.78186,7.83765,5.65338"
		/>
	<path class="st2" d="M150.92633,932.24115c0,0,4.67609,0.60712,6.47488,1.76349c1.79881,1.15637,0.44971,3.40485,5.26793,3.72607"
		/>
	<path class="st2" d="M132.15375,936.87201c0,0,0.64243,3.29993,0.32121,6.96179c-0.32121,3.6618-2.50548,6.33508-1.28487,9.17426"
		/>
	<path class="st2" d="M120.95711,888.40356c0,0,4.21004,1.79077,6.65127,1.91925s6.21044,0.14648,8.82119-0.64813"/>
	<path class="st2" d="M138.23146,885.58685c0,0-6.20621,0.9422-12.15939,0"/>
	<path class="st2" d="M121.68387,885.7962c0,0,2.03263,1.58942,4.38821,1.58942"/>
	<path class="st2" d="M125.60096,846.18451c0,0,7.35865,1.79877,12.6305,1.79877"/>
	<path class="st2" d="M141.6617,850.29602c0,0-7.15237,1.11359-12.54878,0"/>
	<path class="st2" d="M129.53587,795.2674c0,0,3.68858,0.37933,9.51328,0.72192c5.82469,0.34265,6.33864,0,6.33864,0"/>
	<path class="st2" d="M144.27425,799.67261c0,0-3.76892,1.11353-7.28087,0.59961c-3.51195-0.51398-5.07716-0.23206-5.07716-0.23206"
		/>
	<path class="st2" d="M56.73252,905.93042c0,0,7.70915,0.0116,10.66433,0.19855"/>
	<path class="st2" d="M43.05299,917.87964c0,0,1.73035-1.02789,7.6407-1.28485"/>
	<path class="st2" d="M62.06469,915.43842c0,0,10.98555-0.02972,14.96861-0.72156"/>
	<path class="st2" d="M173.39772,904.21729c0,0-1.54184,4.24133-8.28735,3.81244"/>
	<path class="st2" d="M173.39772,885.11572c0,0,6.91565,2.00366,10.78151-1.37518"/>
	<path class="st2" d="M174.4256,887.38562c0,0,3.85458,13.23431,11.82071,15.9538"/>
	<path class="st2" d="M232.28546,892.05396c0,0-0.94061,5.39642,1.6291,7.96613s7.19522,3.76892,11.69221,4.1972"/>
	<path class="st1" d="M229.80302,918.52203c0,0,3.34395,3.33392,2.31441,6.09973c-1.02956,2.76581-1.66866,6.23492,0,7.26282"/>
	<path class="st1" d="M223.76419,920.57074c0,0-2.31276,9.64355-8.73705,12.85571"/>
	<path class="st1" d="M220.55594,928.04077c0,0-5.27182,3.45837-7.45609,3.97229c-2.18427,0.51398-6.93823,3.34064-8.44795,5.55701
		c-1.5097,2.21643-1.9594,4.85034-3.05153,4.75403"/>
	<path class="st1" d="M211.30991,932.67468c0,0-3.60646,6.27661-4.02403,10.06696c-0.41759,3.79034,1.5097,4.78613,0.67455,8.4801"
		/>
	<path class="st1" d="M184.39746,923.51038c0,0,0.05003,7.19904-0.33542,11.67334s-1.54182,9.164-5.33217,10.57733"/>
	<path class="st1" d="M183.74083,935.48218c0,0,4.81822,3.53339,4.9467,10.98553c0.12849,7.45221-4.01465,8.22314-4.28795,8.22314"
		/>
	<path class="st1" d="M188.66515,947.75458c0,0,0.62036,9.05627,3.18019,11.17627c2.55981,2.12006,6.79985,1.41339,4.80832,4.30432"
		/>
	<path class="st1" d="M184.38689,926.68164c0,0,6.0352,2.57538,6.80612,5.55951c0.77092,2.98407,3.21214,5.89215,5.71762,4.63086"/>
	<path class="st1" d="M187.20995,928.41547c0,0-0.51395,5.5249,2.69821,9.31525c3.21214,3.79034,5.78186,2.50549,4.88246,6.03882"/>
	<path class="st1" d="M209.26787,936.69269c0,0-0.02258,8.68292,1.32651,9.06836"/>
	<path class="st1" d="M229.22484,920.89905c0,0-3.53337,14.84015-1.15637,18.75897c2.37698,3.91876,6.03883,2.82666,5.46065,6.74548
		s-0.26343,7.32367,0.061,7.77338"/>
	<path class="st2" d="M223.13452,922.61774c0,0-1.23338,15.69647-6.18008,18.13507"/>
	<path class="st1" d="M227.24632,936.49695c0,0-2.83971,5.2168-0.78394,8.87866s4.1758,3.27637,2.69821,6.617"/>
	<path class="st1" d="M225.71545,941.22687c0,0-0.92339,5.94757-4.48886,8.32452c-3.56549,2.37701-6.64915,4.04932-7.16309,5.94348"
		/>
	<path class="st1" d="M284.49518,918.90753c0,0-2.22708,10.30847-4.11154,12.77771s-1.97012,4.69635-2.74103,6.32385
		c-0.77094,1.6275-3.64001,3.28394-6.3833,4.8678s-4.23822,5.75372-8.43542,6.69592"/>
	<path class="st1" d="M293.14658,917.36566c0,0,1.97012,11.25946,0.59958,15.30902
		c-1.37051,4.04956-4.11154,3.11261-4.28284,8.07812c-0.17133,4.96545-2.80597,9.41962-4.18686,9.93353"/>
	<path class="st1" d="M286.4653,924.62177c0,0-4.02588,5.95538-3.94025,10.01398c0.08566,4.05859,2.99802,1.58582,0.34265,6.59113
		c-2.6554,5.00531-3.4263,3.51025-3.85458,6.52771"/>
	<path class="st1" d="M295.45932,932.67468c0,0-0.68527,2.67902,0.42828,6.01965s2.31604,3.51196,2.10025,7.06671
		c-0.21579,3.55481,1.32605,6.29584,1.49734,6.63849"/>
	<path class="st1" d="M301.79794,927.5589c0,0,2.48407,1.28485,2.82669,5.86755c0.34265,4.58264-0.94223,5.43695,0.94223,8.52173"/>
	<path class="st2" d="M283.07651,924.62177c0,0-3.03549,3.7937-4.74866,4.90723c-1.71313,1.11359-2.99799-0.51294-5.48206,2.39893
		s-1.45618,3.14258-3.16931,4.56903"/>
	<path class="st2" d="M284.4418,928.4964c0,0-0.06491,4.45679,0.78131,5.91162c0.84619,1.4549,1.6171,2.14014,1.18881,5.13818"/>
	<path class="st2" d="M300.25613,921.71802c0,0-1.88446,4.04205-1.79883,6.69745c0.08566,2.6554,2.56973,2.41864,1.79883,6.22028"/>
	<path class="st2" d="M287.36472,847.08392c0,0,3.93634,7.41852,8.14609,9.27472"/>
	<path class="st2" d="M294.23105,855.62531c0,0-5.25275,8.93268-7.66562,10.21753"/>
	<path class="st2" d="M297.6152,874.45142c0,0-9.09412-5.30878-10.25049-9.20721"/>
	<path class="st2" d="M295.5108,873.1275c0,0-2.164,5.82092-10.35873,7.87665"/>
	<path class="st2" d="M285.27646,882.28906c0,0,6.65701,12.77673,12.33875,14.09747"/>
	<path class="st2" d="M285.48734,889.33777c0,0-0.04993,14.3656-11.0997,15.73608"/>
	<path class="st2" d="M288.77805,892.56793c0,0,5.99036,5.73901,9.67645,5.56769"/>
	<path class="st2" d="M320.51407,904.70984c0,0-9.50797,0.57819-12.97708,1.22058
		c-3.46912,0.64246-12.28625-0.61029-12.28625-0.61029"/>
</g>
<image style="overflow:visible;" width="2000" height="3793" id="AI_x5F_Image.psd_00000118362760474395578960000005039756857680584890_" xlink:href="../img/tree.jpg"  transform="matrix(0.18404 0 0 0.18404 -24.68368 -5.01601)">
</image>
<text transform="matrix(1 0 0 1 67.50758 801.36053)" class="st3 st4">Nodes</text>
<text transform="matrix(1 0 0 1 85.97633 868.14514)" class="st3 st4">Culm</text>
<text transform="matrix(1 0 0 1 34.81715 998.1687)" class="st3 st4">Roots</text>
<text transform="matrix(1 0 0 1 238.68263 824.20416)" class="st3 st4">New shoot</text>
<text transform="matrix(1 0 0 1 167.69576 865.54614)" class="st3 st4">buds</text>
<line class="st5" x1="112.12942" y1="798.23517" x2="132.95209" y2="798.23517"/>
<line class="st5" x1="248.74048" y1="911.33917" x2="248.74048" y2="959.89453"/>
<text transform="matrix(1 0 0 1 46.96565 774.40973)" class="st6 st4">Mature cane</text>
<g>
	<text transform="matrix(1 0 0 1 237.39453 976.27521)" class="st3 st4">Rhizomes</text>
</g>
<g>
	<text transform="matrix(1 0 0 1 275.58301 35.25366)" class="st3 st4">34m</text>
</g>
<g>
	<text transform="matrix(1 0 0 1 253.58632 599.87714)"><tspan x="0" y="0" class="st3 st4">Human</tspan><tspan x="0" y="16.7998" class="st3 st4">for scale</tspan></text>
</g>
<circle class="st7" cx="145.87816" cy="652.86328" r="30.61936"/>
<g>
	<g>
		<line class="st7" x1="145.87817" y1="683.4826" x2="145.87817" y2="739.21082"/>
		<g>
			<polygon class="st8" points="142.81079,736.72565 143.36011,736.21405 145.87744,738.92291 148.39551,736.21405 
				148.94482,736.72565 145.87744,740.02417 			"/>
		</g>
	</g>
</g>
</svg>
